<?xml version="1.0" encoding="UTF-8" standalone="no"?>
<!DOCTYPE svg PUBLIC "-//W3C//DTD SVG 1.1//EN" "http://www.w3.org/Graphics/SVG/1.1/DTD/svg11.dtd">
<svg width="100%" height="100%" viewBox="0 0 738 254" version="1.1" xmlns="http://www.w3.org/2000/svg" xmlns:xlink="http://www.w3.org/1999/xlink" xml:space="preserve" xmlns:serif="http://www.serif.com/" style="fill-rule:evenodd;clip-rule:evenodd;stroke-linejoin:round;stroke-miterlimit:2;">
    <g transform="matrix(1,0,0,1,-1957,-1662)">
        <g id="Banner" transform="matrix(0.385781,0,0,0.42404,1678.85,680.771)">
            <rect x="721" y="2314" width="1913" height="599" style="fill:none;"/>
            <clipPath id="_clip1">
                <rect x="721" y="2314" width="1913" height="599"/>
            </clipPath>
            <g clip-path="url(#_clip1)">
                <g>
                    <g transform="matrix(10.8079,0,0,5.87255,-23715.7,-7845.51)">
                        <rect x="2261" y="1730" width="177" height="102" style="fill:rgb(25,34,44);"/>
                    </g>
                    <g transform="matrix(2.89141,0,0,2.63053,-2911.61,2328.59)">
                        <g transform="matrix(1,0,0,1,1087.04,-222.64)">
                            <path d="M281.57,285.26C277.18,277.22 268.65,271.76 258.84,271.76C244.55,271.76 232.96,283.35 232.96,297.64C232.96,311.93 244.55,323.52 258.84,323.52C268.37,323.52 276.66,318.36 281.16,310.7C277.33,315.5 271.45,318.59 264.83,318.59C255.22,318.59 247.15,312.09 244.72,303.26C246.78,307.48 251.1,310.4 256.12,310.4C263.13,310.4 268.81,304.72 268.81,297.71C268.81,290.7 263.13,285.02 256.12,285.02C251.11,285.02 246.78,287.94 244.72,292.16C247.15,283.33 255.22,276.83 264.83,276.83C271.69,276.82 277.76,280.15 281.57,285.26" style="fill:white;fill-rule:nonzero;"/>
                            <path d="M275.62,303.83C277.6,307.46 281.45,309.92 285.88,309.92C292.33,309.92 297.56,304.69 297.56,298.24C297.56,291.79 292.33,286.56 285.88,286.56C281.58,286.56 277.84,288.89 275.81,292.35C277.53,290.18 280.19,288.79 283.18,288.79C287.52,288.79 291.16,291.72 292.26,295.71C291.33,293.81 289.38,292.49 287.12,292.49C283.96,292.49 281.39,295.06 281.39,298.22C281.39,301.38 283.96,303.95 287.12,303.95C289.38,303.95 291.34,302.63 292.26,300.73C291.16,304.72 287.52,307.65 283.18,307.65C280.08,307.64 277.34,306.13 275.62,303.83" style="fill:rgb(251,185,45);fill-rule:nonzero;"/>
                        </g>
                        <g transform="matrix(1,0,0,1,1087.04,-222.64)">
                            <g>
                                <g>
                                    <path d="M324.11,272.06L324.11,275.32L310.09,275.32L310.09,286.97L324.11,286.97L324.11,290.26L310.09,290.26L310.09,301.88L324.11,301.88L324.11,305.17L306.8,305.17L306.8,272.07L324.11,272.07L324.11,272.06Z" style="fill:white;fill-rule:nonzero;"/>
                                    <path d="M327.07,305.16L337.53,287.04L328.87,272.06L332.62,272.06L339.4,283.8L346.18,272.06L349.95,272.06L341.27,287.04L351.75,305.16L348,305.16L339.41,290.3L330.82,305.16L327.07,305.16Z" style="fill:white;fill-rule:nonzero;"/>
                                    <path d="M364.1,275.32L364.1,305.16L360.84,305.16L360.84,275.32L352.83,275.32L352.83,272.06L372.09,272.06L372.09,275.32L364.1,275.32Z" style="fill:white;fill-rule:nonzero;"/>
                                    <path d="M383.5,294.21L378.73,294.21L378.73,305.16L375.45,305.16L375.45,272.06L384.53,272.06C387.15,272.4 389.37,273.48 391.17,275.3C393.33,277.48 394.41,280.08 394.41,283.1C394.41,286.17 393.33,288.79 391.17,290.95C389.66,292.44 388.28,293.34 387.02,293.65L394.5,305.16L390.52,305.16L383.5,294.21ZM378.73,275.34L378.73,290.91L383.34,290.91C385.49,290.91 387.32,290.15 388.84,288.62C390.36,287.1 391.12,285.26 391.12,283.1C391.12,280.96 390.36,279.13 388.84,277.61C387.32,276.1 385.49,275.34 383.34,275.34L378.73,275.34Z" style="fill:white;fill-rule:nonzero;"/>
                                    <path d="M411.03,272.06L423.05,305.16L419.58,305.16L414.52,291.25L404.65,291.25L399.5,305.16L396,305.16L408.16,272.06L411.03,272.06ZM413.34,287.99L409.59,277.65L405.84,287.99L413.34,287.99Z" style="fill:white;fill-rule:nonzero;"/>
                                </g>
                                <g>
                                    <path d="M453.41,276.71C456.71,280.01 458.36,283.99 458.36,288.65C458.36,293.33 456.71,297.31 453.41,300.61C450.11,303.91 446.12,305.56 441.45,305.56C436.79,305.56 432.81,303.91 429.52,300.61C426.22,297.31 424.57,293.32 424.57,288.65C424.57,283.99 426.22,280.01 429.52,276.71C432.82,273.41 436.8,271.76 441.45,271.76C446.12,271.76 450.11,273.41 453.41,276.71ZM441.45,273.64C437.32,273.64 433.79,275.11 430.85,278.04C427.91,280.98 426.44,284.51 426.44,288.64C426.44,292.79 427.91,296.33 430.85,299.26C433.78,302.19 437.31,303.66 441.45,303.66C445.6,303.66 449.14,302.19 452.07,299.26C455.01,296.32 456.47,292.78 456.47,288.64C456.47,284.51 455.01,280.98 452.07,278.04C449.14,275.11 445.59,273.64 441.45,273.64Z" style="fill:white;fill-rule:nonzero;"/>
                                    <path d="M470.42,293.72C470.24,293.73 470.05,293.74 469.86,293.74L464.27,293.74L464.27,305.16L462.41,305.16L462.41,272.22L471.05,272.22C473.56,272.56 475.7,273.61 477.45,275.37C479.55,277.48 480.6,280.01 480.6,282.96C480.6,285.94 479.56,288.48 477.45,290.58C475.99,292.04 474.32,292.99 472.44,293.44L480.03,305.16L477.75,305.16L470.42,293.72ZM464.27,274.11L464.27,291.86L469.86,291.86C472.29,291.86 474.39,290.99 476.12,289.26C477.86,287.53 478.73,285.43 478.73,282.96C478.73,280.5 477.86,278.42 476.12,276.69C474.38,274.97 472.29,274.11 469.86,274.11L464.27,274.11Z" style="fill:white;fill-rule:nonzero;"/>
                                    <path d="M490.85,272.22C496.27,272.25 500.47,273.77 503.45,276.76C506.74,280.07 508.38,284.04 508.38,288.69C508.38,293.36 506.74,297.35 503.45,300.64C500.47,303.62 496.27,305.13 490.85,305.16L484.75,305.16L484.75,272.22L490.85,272.22ZM486.61,274.15L486.61,303.25L490.83,303.25C495.56,303.25 499.3,301.93 502.04,299.29C504.95,296.37 506.42,292.84 506.42,288.69C506.42,284.56 504.95,281.03 502.04,278.09C499.3,275.46 495.57,274.15 490.83,274.15L486.61,274.15Z" style="fill:white;fill-rule:nonzero;"/>
                                    <path d="M521.9,291.83L510.58,272.22L512.7,272.22L522.83,289.78L532.96,272.22L535.08,272.22L523.76,291.83L523.76,305.16L521.89,305.16L521.89,291.83L521.9,291.83Z" style="fill:white;fill-rule:nonzero;"/>
                                </g>
                            </g>
                            <g>
                                <path d="M307.13,323.4L307.13,312.42L308.22,312.42L308.22,322.31L312.21,322.31L312.21,323.4L307.13,323.4Z" style="fill:white;fill-rule:nonzero;"/>
                                <path d="M317.58,312.42L321.56,323.39L320.41,323.39L318.73,318.78L315.46,318.78L313.75,323.39L312.59,323.39L316.62,312.42L317.58,312.42ZM318.35,317.7L317.11,314.27L315.87,317.7L318.35,317.7Z" style="fill:white;fill-rule:nonzero;"/>
                                <path d="M331.45,312.42L331.45,313.5L327.46,313.5L327.46,317.36L331.45,317.36L331.45,318.45L327.46,318.45L327.46,323.39L326.37,323.39L326.37,312.42L331.45,312.42Z" style="fill:white;fill-rule:nonzero;"/>
                                <path d="M341.94,313.92C343.04,315.02 343.59,316.34 343.59,317.89C343.59,319.45 343.04,320.78 341.94,321.87C340.84,322.97 339.51,323.52 337.96,323.52C336.41,323.52 335.09,322.97 333.99,321.87C332.89,320.77 332.34,319.45 332.34,317.89C332.34,316.34 332.89,315.02 333.99,313.92C335.09,312.82 336.41,312.27 337.96,312.27C339.51,312.27 340.84,312.82 341.94,313.92ZM337.95,313.36C336.7,313.36 335.64,313.8 334.75,314.69C333.86,315.58 333.42,316.64 333.42,317.89C333.42,319.14 333.86,320.21 334.75,321.1C335.64,321.99 336.7,322.43 337.95,322.43C339.2,322.43 340.27,321.99 341.15,321.1C342.04,320.21 342.48,319.14 342.48,317.89C342.48,316.64 342.04,315.58 341.15,314.69C340.27,313.81 339.21,313.36 337.95,313.36Z" style="fill:white;fill-rule:nonzero;"/>
                                <path d="M347.6,319.77L346.02,319.77L346.02,323.4L344.93,323.4L344.93,312.43L347.94,312.43C348.81,312.54 349.54,312.9 350.14,313.5C350.86,314.22 351.21,315.08 351.21,316.09C351.21,317.11 350.85,317.98 350.14,318.69C349.64,319.18 349.18,319.48 348.77,319.59L351.25,323.41L349.93,323.41L347.6,319.77ZM346.02,313.51L346.02,318.67L347.55,318.67C348.26,318.67 348.87,318.42 349.37,317.91C349.88,317.41 350.13,316.8 350.13,316.08C350.13,315.37 349.88,314.76 349.37,314.26C348.87,313.76 348.26,313.51 347.55,313.51L346.02,313.51Z" style="fill:white;fill-rule:nonzero;"/>
                                <path d="M362.28,312.42L362.28,323.39L361.19,323.39L361.19,314.03L357.95,318.27L357.39,319.02L356.82,318.28L353.58,314.03L353.58,323.39L352.49,323.39L352.49,312.42L353.72,312.42L357.4,317.22L361.07,312.42L362.28,312.42Z" style="fill:white;fill-rule:nonzero;"/>
                                <path d="M367.97,312.42L371.95,323.39L370.8,323.39L369.12,318.78L365.85,318.78L364.14,323.39L362.98,323.39L367.01,312.42L367.97,312.42ZM368.74,317.7L367.5,314.27L366.26,317.7L368.74,317.7Z" style="fill:white;fill-rule:nonzero;"/>
                                <path d="M378.33,313.5L373.54,313.5L373.54,312.42L380.2,312.42L374.48,322.31L380.53,322.31L380.53,323.4L372.61,323.4L378.33,313.5Z" style="fill:white;fill-rule:nonzero;"/>
                                <rect x="381.59" y="312.42" width="1.09" height="10.97" style="fill:white;fill-rule:nonzero;"/>
                                <path d="M393.7,313.92C394.8,315.02 395.35,316.34 395.35,317.89C395.35,319.45 394.8,320.78 393.7,321.87C392.6,322.97 391.27,323.52 389.72,323.52C388.17,323.52 386.85,322.97 385.75,321.87C384.65,320.77 384.1,319.45 384.1,317.89C384.1,316.34 384.65,315.02 385.75,313.92C386.85,312.82 388.17,312.27 389.72,312.27C391.28,312.27 392.6,312.82 393.7,313.92ZM389.72,313.36C388.47,313.36 387.41,313.8 386.52,314.69C385.63,315.58 385.19,316.64 385.19,317.89C385.19,319.14 385.63,320.21 386.52,321.1C387.41,321.99 388.47,322.43 389.72,322.43C390.97,322.43 392.04,321.99 392.92,321.1C393.81,320.21 394.25,319.14 394.25,317.89C394.25,316.64 393.81,315.58 392.92,314.69C392.04,313.81 390.97,313.36 389.72,313.36Z" style="fill:white;fill-rule:nonzero;"/>
                                <path d="M397.79,312.42L404.38,321.66L404.38,312.42L405.47,312.42L405.47,323.39L404.19,323.39L397.76,314.38L397.76,323.39L396.67,323.39L396.67,312.42L397.79,312.42Z" style="fill:white;fill-rule:nonzero;"/>
                                <path d="M412.92,312.42L412.92,313.5L408.27,313.5L408.27,317.36L412.92,317.36L412.92,318.45L408.27,318.45L408.27,322.3L412.92,322.3L412.92,323.39L407.18,323.39L407.18,312.42L412.92,312.42Z" style="fill:white;fill-rule:nonzero;"/>
                                <path d="M424.82,312.42L425.91,312.42L425.91,320.21C425.79,321.08 425.43,321.81 424.84,322.41C424.12,323.13 423.26,323.48 422.25,323.48C421.23,323.48 420.36,323.12 419.65,322.41C418.93,321.69 418.58,320.83 418.58,319.82L418.58,312.42L419.67,312.42L419.67,319.82C419.67,320.52 419.92,321.13 420.43,321.64C420.93,322.15 421.54,322.4 422.26,322.4C422.97,322.4 423.58,322.15 424.08,321.64C424.58,321.13 424.83,320.53 424.83,319.82L424.83,312.42L424.82,312.42Z" style="fill:white;fill-rule:nonzero;"/>
                                <path d="M432.72,312.42L432.72,313.5L428.73,313.5L428.73,317.36L432.72,317.36L432.72,318.45L428.73,318.45L428.73,323.39L427.64,323.39L427.64,312.42L432.72,312.42Z" style="fill:white;fill-rule:nonzero;"/>
                                <path d="M439.07,312.42L439.07,313.5L435.08,313.5L435.08,317.36L439.07,317.36L439.07,318.45L435.08,318.45L435.08,323.39L433.99,323.39L433.99,312.42L439.07,312.42Z" style="fill:white;fill-rule:nonzero;"/>
                                <rect x="440.41" y="312.42" width="1.09" height="10.97" style="fill:white;fill-rule:nonzero;"/>
                                <path d="M451.79,321.15L452.61,321.88C451.41,322.97 450.08,323.52 448.63,323.52C447.07,323.52 445.75,322.97 444.66,321.88C443.57,320.79 443.02,319.46 443.02,317.91C443.02,316.36 443.57,315.04 444.66,313.94C445.75,312.84 447.08,312.29 448.63,312.29C450.08,312.29 451.4,312.84 452.61,313.94L451.79,314.67C450.83,313.82 449.77,313.4 448.63,313.4C447.38,313.4 446.32,313.84 445.44,314.72C444.56,315.6 444.12,316.66 444.12,317.91C444.12,319.16 444.56,320.23 445.44,321.11C446.32,321.99 447.39,322.43 448.63,322.43C449.77,322.43 450.83,322 451.79,321.15Z" style="fill:white;fill-rule:nonzero;"/>
                                <rect x="454.04" y="312.42" width="1.09" height="10.97" style="fill:white;fill-rule:nonzero;"/>
                                <path d="M461.04,312.42L465.02,323.39L463.87,323.39L462.19,318.78L458.92,318.78L457.21,323.39L456.05,323.39L460.08,312.42L461.04,312.42ZM461.81,317.7L460.57,314.27L459.33,317.7L461.81,317.7Z" style="fill:white;fill-rule:nonzero;"/>
                                <path d="M465.91,323.4L465.91,312.42L467,312.42L467,322.31L470.99,322.31L470.99,323.4L465.91,323.4Z" style="fill:white;fill-rule:nonzero;"/>
                                <path d="M477.99,312.42L477.99,313.5L473.34,313.5L473.34,317.36L477.99,317.36L477.99,318.45L473.34,318.45L473.34,322.3L477.99,322.3L477.99,323.39L472.25,323.39L472.25,312.42L477.99,312.42Z" style="fill:white;fill-rule:nonzero;"/>
                                <path d="M486.32,319.77L484.74,319.77L484.74,323.4L483.65,323.4L483.65,312.43L486.66,312.43C487.53,312.54 488.26,312.9 488.86,313.5C489.58,314.22 489.93,315.08 489.93,316.09C489.93,317.11 489.57,317.98 488.86,318.69C488.36,319.18 487.9,319.48 487.49,319.59L489.97,323.41L488.65,323.41L486.32,319.77ZM484.73,313.51L484.73,318.67L486.26,318.67C486.97,318.67 487.58,318.42 488.08,317.91C488.59,317.41 488.84,316.8 488.84,316.08C488.84,315.37 488.59,314.76 488.08,314.26C487.58,313.76 486.97,313.51 486.26,313.51L484.73,313.51Z" style="fill:white;fill-rule:nonzero;"/>
                                <path d="M497.08,312.42L497.08,313.5L492.43,313.5L492.43,317.36L497.08,317.36L497.08,318.45L492.43,318.45L492.43,322.3L497.08,322.3L497.08,323.39L491.34,323.39L491.34,312.42L497.08,312.42Z" style="fill:white;fill-rule:nonzero;"/>
                                <path d="M501,312.42C502.79,312.43 504.19,312.93 505.19,313.93C506.28,315.03 506.83,316.35 506.83,317.9C506.83,319.45 506.28,320.78 505.19,321.88C504.19,322.88 502.8,323.38 501,323.39L498.81,323.39L498.81,312.42L501,312.42ZM499.89,313.52L499.89,322.29L500.99,322.29C502.43,322.29 503.56,321.89 504.38,321.1C505.26,320.22 505.7,319.15 505.7,317.9C505.7,316.65 505.26,315.59 504.38,314.7C503.56,313.91 502.43,313.52 500.99,313.52L499.89,313.52Z" style="fill:white;fill-rule:nonzero;"/>
                                <path d="M513.04,318.45L513.04,323.39L511.95,323.39L511.95,312.42L513.04,312.42L513.04,317.36L517.91,317.36L517.91,312.42L519,312.42L519,323.39L517.91,323.39L517.91,318.45L513.04,318.45Z" style="fill:white;fill-rule:nonzero;"/>
                                <path d="M524.7,312.42L528.68,323.39L527.53,323.39L525.85,318.78L522.58,318.78L520.87,323.39L519.71,323.39L523.74,312.42L524.7,312.42ZM525.46,317.7L524.22,314.27L522.98,317.7L525.46,317.7Z" style="fill:white;fill-rule:nonzero;"/>
                                <path d="M532.12,313.5L532.12,323.39L531.04,323.39L531.04,313.5L528.38,313.5L528.38,312.42L534.77,312.42L534.77,313.5L532.12,313.5Z" style="fill:white;fill-rule:nonzero;"/>
                            </g>
                        </g>
                    </g>
                    <g transform="matrix(42.1151,0,0,6.21725,-85091.2,-8572.41)">
                        <path d="M2078.07,1828.38L2078.07,1805.62L2041.93,1805.62L2041.93,1828.38L2078.07,1828.38ZM2078,1806L2042,1806L2042,1828L2078,1828L2078,1806Z" style="fill:white;"/>
                    </g>
                    <g transform="matrix(4.3622,0,0,3.96863,-8077.19,-4552.55)">
                        <path d="M2083.54,1838.44C2084.29,1838.44 2085,1838.28 2085.66,1837.96C2086.33,1837.64 2086.91,1837.19 2087.42,1836.6L2089.39,1838.54C2088.7,1839.35 2087.82,1840 2086.75,1840.48C2085.68,1840.97 2084.58,1841.21 2083.45,1841.21C2082.37,1841.21 2081.35,1841.01 2080.41,1840.63C2079.46,1840.24 2078.64,1839.72 2077.96,1839.06C2077.27,1838.4 2076.73,1837.61 2076.33,1836.7C2075.94,1835.79 2075.74,1834.81 2075.74,1833.77C2075.74,1832.72 2075.94,1831.74 2076.34,1830.82C2076.74,1829.9 2077.29,1829.12 2077.98,1828.45C2078.66,1827.79 2079.48,1827.27 2080.43,1826.88C2081.37,1826.5 2082.38,1826.31 2083.45,1826.31C2084.61,1826.31 2085.73,1826.55 2086.82,1827.04C2087.91,1827.53 2088.79,1828.19 2089.47,1829.01L2087.44,1831.02C2086.93,1830.38 2086.33,1829.9 2085.64,1829.56C2084.95,1829.22 2084.22,1829.05 2083.45,1829.05C2082.81,1829.05 2082.2,1829.17 2081.62,1829.42C2081.05,1829.66 2080.56,1829.99 2080.15,1830.41C2079.73,1830.83 2079.41,1831.32 2079.18,1831.9C2078.94,1832.47 2078.82,1833.09 2078.82,1833.77C2078.82,1834.43 2078.94,1835.04 2079.18,1835.62C2079.43,1836.19 2079.76,1836.68 2080.18,1837.09C2080.6,1837.51 2081.09,1837.83 2081.66,1838.08C2082.24,1838.32 2082.86,1838.44 2083.54,1838.44Z" style="fill:white;fill-rule:nonzero;"/>
                        <path d="M2105.67,1833.77C2105.67,1834.8 2105.47,1835.77 2105.07,1836.69C2104.67,1837.61 2104.13,1838.4 2103.45,1839.07C2102.77,1839.74 2101.96,1840.26 2101.02,1840.65C2100.08,1841.03 2099.08,1841.23 2098,1841.23C2096.94,1841.23 2095.94,1841.03 2095.01,1840.65C2094.07,1840.26 2093.26,1839.74 2092.58,1839.07C2091.9,1838.4 2091.36,1837.61 2090.96,1836.69C2090.56,1835.77 2090.36,1834.8 2090.36,1833.77C2090.36,1832.73 2090.56,1831.76 2090.96,1830.84C2091.36,1829.92 2091.9,1829.13 2092.58,1828.47C2093.26,1827.8 2094.07,1827.27 2095.01,1826.88C2095.94,1826.5 2096.94,1826.31 2098,1826.31C2099.08,1826.31 2100.08,1826.5 2101.02,1826.88C2101.96,1827.27 2102.77,1827.8 2103.45,1828.47C2104.13,1829.13 2104.67,1829.92 2105.07,1830.84C2105.47,1831.76 2105.67,1832.73 2105.67,1833.77ZM2102.59,1833.77C2102.59,1833.09 2102.47,1832.47 2102.24,1831.9C2102.01,1831.32 2101.69,1830.83 2101.28,1830.41C2100.87,1829.99 2100.39,1829.66 2099.82,1829.42C2099.26,1829.17 2098.65,1829.05 2098,1829.05C2097.36,1829.05 2096.75,1829.17 2096.2,1829.42C2095.64,1829.66 2095.16,1829.99 2094.75,1830.41C2094.34,1830.83 2094.02,1831.32 2093.79,1831.9C2093.55,1832.47 2093.44,1833.09 2093.44,1833.77C2093.44,1834.43 2093.55,1835.05 2093.79,1835.63C2094.02,1836.2 2094.34,1836.7 2094.75,1837.13C2095.16,1837.55 2095.64,1837.88 2096.2,1838.12C2096.75,1838.36 2097.36,1838.48 2098,1838.48C2098.65,1838.48 2099.26,1838.36 2099.82,1838.12C2100.39,1837.88 2100.87,1837.55 2101.28,1837.13C2101.69,1836.7 2102.01,1836.2 2102.24,1835.63C2102.47,1835.05 2102.59,1834.43 2102.59,1833.77Z" style="fill:white;fill-rule:nonzero;"/>
                        <path d="M2107.9,1826.53L2110.76,1826.53L2117.95,1835.89L2117.95,1826.53L2120.76,1826.53L2120.76,1841L2118.11,1841L2110.74,1831.33L2110.74,1841L2107.9,1841L2107.9,1826.53Z" style="fill:white;fill-rule:nonzero;"/>
                        <path d="M2123.57,1841L2123.57,1826.53L2129.13,1826.53C2130.2,1826.53 2131.21,1826.72 2132.15,1827.09C2133.08,1827.46 2133.89,1827.97 2134.58,1828.62C2135.26,1829.27 2135.8,1830.04 2136.19,1830.93C2136.58,1831.83 2136.78,1832.79 2136.78,1833.81C2136.78,1834.81 2136.58,1835.76 2136.19,1836.64C2135.8,1837.52 2135.26,1838.28 2134.58,1838.92C2133.89,1839.56 2133.08,1840.07 2132.15,1840.44C2131.21,1840.81 2130.2,1841 2129.13,1841L2123.57,1841ZM2129.11,1829.2L2126.57,1829.2L2126.57,1838.33L2129.11,1838.33C2129.74,1838.33 2130.34,1838.22 2130.9,1837.98C2131.45,1837.75 2131.94,1837.43 2132.35,1837.02C2132.77,1836.62 2133.09,1836.14 2133.32,1835.59C2133.56,1835.03 2133.68,1834.44 2133.68,1833.81C2133.68,1833.16 2133.56,1832.55 2133.32,1831.99C2133.09,1831.42 2132.77,1830.93 2132.35,1830.52C2131.94,1830.11 2131.45,1829.78 2130.9,1829.55C2130.34,1829.32 2129.74,1829.2 2129.11,1829.2Z" style="fill:white;fill-rule:nonzero;"/>
                        <rect x="2139.01" y="1826.53" width="2.997" height="14.468" style="fill:white;fill-rule:nonzero;"/>
                        <path d="M2149.3,1841L2143.43,1826.53L2146.68,1826.53L2151.1,1837.96L2155.63,1826.53L2158.73,1826.53L2152.77,1841L2149.3,1841Z" style="fill:white;fill-rule:nonzero;"/>
                        <rect x="2160.13" y="1826.53" width="2.997" height="14.468" style="fill:white;fill-rule:nonzero;"/>
                        <path d="M2165.94,1841L2165.94,1826.53L2171.5,1826.53C2172.57,1826.53 2173.58,1826.72 2174.52,1827.09C2175.45,1827.46 2176.26,1827.97 2176.95,1828.62C2177.63,1829.27 2178.16,1830.04 2178.56,1830.93C2178.95,1831.83 2179.15,1832.79 2179.15,1833.81C2179.15,1834.81 2178.95,1835.76 2178.56,1836.64C2178.16,1837.52 2177.63,1838.28 2176.95,1838.92C2176.26,1839.56 2175.45,1840.07 2174.52,1840.44C2173.58,1840.81 2172.57,1841 2171.5,1841L2165.94,1841ZM2171.48,1829.2L2168.94,1829.2L2168.94,1838.33L2171.48,1838.33C2172.11,1838.33 2172.71,1838.22 2173.27,1837.98C2173.82,1837.75 2174.31,1837.43 2174.72,1837.02C2175.14,1836.62 2175.46,1836.14 2175.7,1835.59C2175.93,1835.03 2176.05,1834.44 2176.05,1833.81C2176.05,1833.16 2175.93,1832.55 2175.7,1831.99C2175.46,1831.42 2175.14,1830.93 2174.72,1830.52C2174.31,1830.11 2173.82,1829.78 2173.27,1829.55C2172.71,1829.32 2172.11,1829.2 2171.48,1829.2Z" style="fill:white;fill-rule:nonzero;"/>
                        <rect x="2181.38" y="1826.53" width="2.997" height="14.468" style="fill:white;fill-rule:nonzero;"/>
                        <path d="M2185.8,1841L2191.75,1826.53L2195.23,1826.53L2201.1,1841L2197.85,1841L2196.38,1837.2L2190.41,1837.2L2188.92,1841L2185.8,1841ZM2191.34,1834.8L2195.47,1834.8L2193.43,1829.47L2191.34,1834.8Z" style="fill:white;fill-rule:nonzero;"/>
                        <path d="M2210.27,1839.97L2205.27,1830.36L2205.27,1841L2202.5,1841L2202.5,1826.53L2206.35,1826.53L2210.31,1834.3L2214.28,1826.53L2218.13,1826.53L2218.13,1841L2215.3,1841L2215.3,1830.38L2210.27,1839.97Z" style="fill:white;fill-rule:nonzero;"/>
                        <path d="M2235.67,1833.77C2235.67,1834.8 2235.47,1835.77 2235.07,1836.69C2234.68,1837.61 2234.13,1838.4 2233.45,1839.07C2232.77,1839.74 2231.96,1840.26 2231.02,1840.65C2230.09,1841.03 2229.08,1841.23 2228.01,1841.23C2226.95,1841.23 2225.95,1841.03 2225.01,1840.65C2224.07,1840.26 2223.26,1839.74 2222.58,1839.07C2221.9,1838.4 2221.36,1837.61 2220.96,1836.69C2220.56,1835.77 2220.36,1834.8 2220.36,1833.77C2220.36,1832.73 2220.56,1831.76 2220.96,1830.84C2221.36,1829.92 2221.9,1829.13 2222.58,1828.47C2223.26,1827.8 2224.07,1827.27 2225.01,1826.88C2225.95,1826.5 2226.95,1826.31 2228.01,1826.31C2229.08,1826.31 2230.09,1826.5 2231.02,1826.88C2231.96,1827.27 2232.77,1827.8 2233.45,1828.47C2234.13,1829.13 2234.68,1829.92 2235.07,1830.84C2235.47,1831.76 2235.67,1832.73 2235.67,1833.77ZM2232.59,1833.77C2232.59,1833.09 2232.48,1832.47 2232.24,1831.9C2232.01,1831.32 2231.69,1830.83 2231.28,1830.41C2230.88,1829.99 2230.39,1829.66 2229.83,1829.42C2229.26,1829.17 2228.65,1829.05 2228.01,1829.05C2227.36,1829.05 2226.76,1829.17 2226.2,1829.42C2225.64,1829.66 2225.16,1829.99 2224.75,1830.41C2224.34,1830.83 2224.02,1831.32 2223.79,1831.9C2223.55,1832.47 2223.44,1833.09 2223.44,1833.77C2223.44,1834.43 2223.55,1835.05 2223.79,1835.63C2224.02,1836.2 2224.34,1836.7 2224.75,1837.13C2225.16,1837.55 2225.64,1837.88 2226.2,1838.12C2226.76,1838.36 2227.36,1838.48 2228.01,1838.48C2228.65,1838.48 2229.26,1838.36 2229.83,1838.12C2230.39,1837.88 2230.88,1837.55 2231.28,1837.13C2231.69,1836.7 2232.01,1836.2 2232.24,1835.63C2232.48,1835.05 2232.59,1834.43 2232.59,1833.77Z" style="fill:white;fill-rule:nonzero;"/>
                        <path d="M2249.48,1838.44C2250.24,1838.44 2250.95,1838.28 2251.61,1837.96C2252.27,1837.64 2252.86,1837.19 2253.37,1836.6L2255.33,1838.54C2254.64,1839.35 2253.76,1840 2252.69,1840.48C2251.63,1840.97 2250.53,1841.21 2249.4,1841.21C2248.31,1841.21 2247.29,1841.01 2246.35,1840.63C2245.41,1840.24 2244.59,1839.72 2243.9,1839.06C2243.21,1838.4 2242.67,1837.61 2242.28,1836.7C2241.89,1835.79 2241.69,1834.81 2241.69,1833.77C2241.69,1832.72 2241.89,1831.74 2242.29,1830.82C2242.69,1829.9 2243.23,1829.12 2243.92,1828.45C2244.61,1827.79 2245.43,1827.27 2246.37,1826.88C2247.31,1826.5 2248.32,1826.31 2249.4,1826.31C2250.55,1826.31 2251.68,1826.55 2252.77,1827.04C2253.86,1827.53 2254.74,1828.19 2255.41,1829.01L2253.39,1831.02C2252.88,1830.38 2252.28,1829.9 2251.59,1829.56C2250.9,1829.22 2250.17,1829.05 2249.4,1829.05C2248.75,1829.05 2248.14,1829.17 2247.57,1829.42C2247,1829.66 2246.5,1829.99 2246.09,1830.41C2245.68,1830.83 2245.35,1831.32 2245.12,1831.9C2244.89,1832.47 2244.77,1833.09 2244.77,1833.77C2244.77,1834.43 2244.89,1835.04 2245.13,1835.62C2245.37,1836.19 2245.7,1836.68 2246.12,1837.09C2246.54,1837.51 2247.04,1837.83 2247.61,1838.08C2248.18,1838.32 2248.8,1838.44 2249.48,1838.44Z" style="fill:white;fill-rule:nonzero;"/>
                        <path d="M2271.62,1833.77C2271.62,1834.8 2271.42,1835.77 2271.02,1836.69C2270.62,1837.61 2270.08,1838.4 2269.39,1839.07C2268.71,1839.74 2267.9,1840.26 2266.97,1840.65C2266.03,1841.03 2265.02,1841.23 2263.95,1841.23C2262.89,1841.23 2261.89,1841.03 2260.95,1840.65C2260.01,1840.26 2259.2,1839.74 2258.52,1839.07C2257.84,1838.4 2257.3,1837.61 2256.9,1836.69C2256.5,1835.77 2256.3,1834.8 2256.3,1833.77C2256.3,1832.73 2256.5,1831.76 2256.9,1830.84C2257.3,1829.92 2257.84,1829.13 2258.52,1828.47C2259.2,1827.8 2260.01,1827.27 2260.95,1826.88C2261.89,1826.5 2262.89,1826.31 2263.95,1826.31C2265.02,1826.31 2266.03,1826.5 2266.97,1826.88C2267.9,1827.27 2268.71,1827.8 2269.39,1828.47C2270.08,1829.13 2270.62,1829.92 2271.02,1830.84C2271.42,1831.76 2271.62,1832.73 2271.62,1833.77ZM2268.54,1833.77C2268.54,1833.09 2268.42,1832.47 2268.18,1831.9C2267.95,1831.32 2267.63,1830.83 2267.22,1830.41C2266.82,1829.99 2266.33,1829.66 2265.77,1829.42C2265.2,1829.17 2264.6,1829.05 2263.95,1829.05C2263.3,1829.05 2262.7,1829.17 2262.14,1829.42C2261.58,1829.66 2261.1,1829.99 2260.69,1830.41C2260.29,1830.83 2259.97,1831.32 2259.73,1831.9C2259.5,1832.47 2259.38,1833.09 2259.38,1833.77C2259.38,1834.43 2259.5,1835.05 2259.73,1835.63C2259.97,1836.2 2260.29,1836.7 2260.69,1837.13C2261.1,1837.55 2261.58,1837.88 2262.14,1838.12C2262.7,1838.36 2263.3,1838.48 2263.95,1838.48C2264.6,1838.48 2265.2,1838.36 2265.77,1838.12C2266.33,1837.88 2266.82,1837.55 2267.22,1837.13C2267.63,1836.7 2267.95,1836.2 2268.18,1835.63C2268.42,1835.05 2268.54,1834.43 2268.54,1833.77Z" style="fill:white;fill-rule:nonzero;"/>
                        <path d="M2273.85,1826.53L2276.7,1826.53L2283.89,1835.89L2283.89,1826.53L2286.7,1826.53L2286.7,1841L2284.06,1841L2276.68,1831.33L2276.68,1841L2273.85,1841L2273.85,1826.53Z" style="fill:white;fill-rule:nonzero;"/>
                        <path d="M2304.27,1833.77C2304.27,1834.8 2304.07,1835.77 2303.67,1836.69C2303.27,1837.61 2302.73,1838.4 2302.05,1839.07C2301.37,1839.74 2300.56,1840.26 2299.62,1840.65C2298.68,1841.03 2297.68,1841.23 2296.6,1841.23C2295.54,1841.23 2294.54,1841.03 2293.61,1840.65C2292.67,1840.26 2291.86,1839.74 2291.18,1839.07C2290.5,1838.4 2289.95,1837.61 2289.56,1836.69C2289.16,1835.77 2288.96,1834.8 2288.96,1833.77C2288.96,1832.73 2289.16,1831.76 2289.56,1830.84C2289.95,1829.92 2290.5,1829.13 2291.18,1828.47C2291.86,1827.8 2292.67,1827.27 2293.61,1826.88C2294.54,1826.5 2295.54,1826.31 2296.6,1826.31C2297.68,1826.31 2298.68,1826.5 2299.62,1826.88C2300.56,1827.27 2301.37,1827.8 2302.05,1828.47C2302.73,1829.13 2303.27,1829.92 2303.67,1830.84C2304.07,1831.76 2304.27,1832.73 2304.27,1833.77ZM2301.19,1833.77C2301.19,1833.09 2301.08,1832.47 2300.84,1831.9C2300.61,1831.32 2300.29,1830.83 2299.88,1830.41C2299.47,1829.99 2298.99,1829.66 2298.42,1829.42C2297.86,1829.17 2297.25,1829.05 2296.6,1829.05C2295.96,1829.05 2295.35,1829.17 2294.8,1829.42C2294.24,1829.66 2293.76,1829.99 2293.35,1830.41C2292.94,1830.83 2292.62,1831.32 2292.39,1831.9C2292.15,1832.47 2292.04,1833.09 2292.04,1833.77C2292.04,1834.43 2292.15,1835.05 2292.39,1835.63C2292.62,1836.2 2292.94,1836.7 2293.35,1837.13C2293.76,1837.55 2294.24,1837.88 2294.8,1838.12C2295.35,1838.36 2295.96,1838.48 2296.6,1838.48C2297.25,1838.48 2297.86,1838.36 2298.42,1838.12C2298.99,1837.88 2299.47,1837.55 2299.88,1837.13C2300.29,1836.7 2300.61,1836.2 2300.84,1835.63C2301.08,1835.05 2301.19,1834.43 2301.19,1833.77Z" style="fill:white;fill-rule:nonzero;"/>
                        <path d="M2305.26,1838.71L2306.98,1836.56C2307.82,1837.29 2308.63,1837.82 2309.41,1838.16C2310.19,1838.5 2311.01,1838.66 2311.88,1838.66C2312.77,1838.66 2313.49,1838.5 2314.03,1838.17C2314.56,1837.84 2314.83,1837.4 2314.83,1836.85C2314.83,1836.35 2314.65,1835.96 2314.28,1835.69C2313.92,1835.41 2313.31,1835.21 2312.46,1835.07L2309.58,1834.57C2308.34,1834.37 2307.4,1833.93 2306.76,1833.27C2306.12,1832.61 2305.8,1831.75 2305.8,1830.71C2305.8,1829.36 2306.31,1828.29 2307.34,1827.5C2308.37,1826.72 2309.76,1826.33 2311.51,1826.33C2312.55,1826.33 2313.61,1826.51 2314.68,1826.86C2315.75,1827.22 2316.68,1827.72 2317.48,1828.35L2315.87,1830.58C2315.09,1829.99 2314.34,1829.55 2313.59,1829.27C2312.85,1828.99 2312.08,1828.85 2311.3,1828.85C2310.5,1828.85 2309.86,1829 2309.38,1829.29C2308.89,1829.59 2308.65,1829.98 2308.65,1830.48C2308.65,1830.92 2308.81,1831.27 2309.13,1831.51C2309.45,1831.76 2309.98,1831.94 2310.72,1832.05L2313.45,1832.51C2314.88,1832.74 2315.96,1833.2 2316.68,1833.88C2317.41,1834.56 2317.77,1835.46 2317.77,1836.58C2317.77,1837.98 2317.21,1839.11 2316.1,1839.95C2314.99,1840.79 2313.52,1841.21 2311.67,1841.21C2310.51,1841.21 2309.37,1840.99 2308.25,1840.55C2307.13,1840.1 2306.13,1839.49 2305.26,1838.71Z" style="fill:white;fill-rule:nonzero;"/>
                        <path d="M2326.99,1838.44C2327.74,1838.44 2328.45,1838.28 2329.11,1837.96C2329.78,1837.64 2330.36,1837.19 2330.87,1836.6L2332.84,1838.54C2332.15,1839.35 2331.27,1840 2330.2,1840.48C2329.13,1840.97 2328.03,1841.21 2326.9,1841.21C2325.81,1841.21 2324.8,1841.01 2323.85,1840.63C2322.91,1840.24 2322.09,1839.72 2321.41,1839.06C2320.72,1838.4 2320.18,1837.61 2319.78,1836.7C2319.39,1835.79 2319.19,1834.81 2319.19,1833.77C2319.19,1832.72 2319.39,1831.74 2319.79,1830.82C2320.19,1829.9 2320.74,1829.12 2321.43,1828.45C2322.12,1827.79 2322.93,1827.27 2323.88,1826.88C2324.82,1826.5 2325.83,1826.31 2326.9,1826.31C2328.06,1826.31 2329.18,1826.55 2330.27,1827.04C2331.36,1827.53 2332.24,1828.19 2332.92,1829.01L2330.89,1831.02C2330.38,1830.38 2329.78,1829.9 2329.09,1829.56C2328.41,1829.22 2327.67,1829.05 2326.9,1829.05C2326.26,1829.05 2325.65,1829.17 2325.07,1829.42C2324.5,1829.66 2324.01,1829.99 2323.6,1830.41C2323.18,1830.83 2322.86,1831.32 2322.63,1831.9C2322.39,1832.47 2322.27,1833.09 2322.27,1833.77C2322.27,1834.43 2322.39,1835.04 2322.64,1835.62C2322.88,1836.19 2323.21,1836.68 2323.63,1837.09C2324.05,1837.51 2324.54,1837.83 2325.12,1838.08C2325.69,1838.32 2326.31,1838.44 2326.99,1838.44Z" style="fill:white;fill-rule:nonzero;"/>
                        <path d="M2334.78,1841L2334.78,1826.53L2345.9,1826.53L2345.9,1829.14L2337.77,1829.14L2337.77,1832.44L2343.13,1832.44L2343.13,1834.97L2337.77,1834.97L2337.77,1838.4L2345.98,1838.4L2345.98,1841L2334.78,1841Z" style="fill:white;fill-rule:nonzero;"/>
                        <path d="M2348.29,1826.53L2351.15,1826.53L2358.34,1835.89L2358.34,1826.53L2361.15,1826.53L2361.15,1841L2358.5,1841L2351.13,1831.33L2351.13,1841L2348.29,1841L2348.29,1826.53Z" style="fill:white;fill-rule:nonzero;"/>
                        <path d="M2363.09,1841L2363.09,1838.95L2371.07,1829.14L2363.16,1829.14L2363.16,1826.53L2374.98,1826.53L2374.98,1828.58L2367,1838.4L2375.06,1838.4L2375.06,1841L2363.09,1841Z" style="fill:white;fill-rule:nonzero;"/>
                        <path d="M2375.93,1841L2381.88,1826.53L2385.35,1826.53L2391.22,1841L2387.98,1841L2386.51,1837.2L2380.54,1837.2L2379.05,1841L2375.93,1841ZM2381.47,1834.8L2385.6,1834.8L2383.55,1829.47L2381.47,1834.8Z" style="fill:white;fill-rule:nonzero;"/>
                    </g>
                    <g transform="matrix(2.59214,0,0,2.66973,-4371.26,-2152.83)">
                        <rect x="2400" y="1727" width="1" height="51" style="fill:white;"/>
                    </g>
                    <g transform="matrix(1.01768,0,0,0.925861,-191.933,869.514)">
                        <g transform="matrix(0.0914774,0,0,0.0914774,2346,1715.47)">
                            <g transform="matrix(1,0,0,1,652.688,296.367)">
                                <path d="M0,-3.553C7.074,29.971 7.074,33.493 7.074,37.902C7.074,95.246 -57.324,126.996 -141.999,126.996C-333.401,126.996 -500.964,14.97 -500.964,-59.121C-500.964,-70.603 -498.331,-81.175 -494.799,-89.094C-563.605,-85.563 -652.688,-73.234 -652.688,5.276C-652.688,134.039 -347.516,292.814 -105.84,292.814C79.388,292.814 126.119,209.015 126.119,142.865C126.119,90.817 81.144,31.739 0,-3.553M-133.171,43.209C-82.011,43.209 -7.939,32.616 -7.939,-28.25C-7.939,-32.995 -8.062,-37.618 -9.195,-42.252L-39.668,-174.657C-46.751,-203.753 -52.916,-216.989 -104.064,-242.565C-143.773,-262.863 -230.193,-296.367 -255.779,-296.367C-279.587,-296.367 -286.649,-265.515 -314.868,-265.515C-342.198,-265.515 -362.497,-288.428 -388.082,-288.428C-412.769,-288.428 -428.648,-271.679 -440.998,-237.278C-440.998,-237.278 -475.399,-140.264 -479.808,-126.15C-480.696,-123.497 -480.716,-120.528 -480.716,-118.21C-480.716,-80.501 -332.217,43.209 -133.171,43.209" style="fill:rgb(237,40,55);fill-rule:nonzero;"/>
                            </g>
                            <g transform="matrix(1,0,0,1,652.688,300.766)">
                                <path d="M0,-7.952C7.074,25.572 7.074,29.094 7.074,33.503C7.074,90.847 -57.324,122.597 -141.999,122.597C-333.401,122.597 -500.964,10.571 -500.964,-63.52C-500.964,-75.002 -498.331,-85.574 -494.799,-93.493L-479.808,-130.549C-480.696,-127.896 -480.716,-124.927 -480.716,-122.609C-480.716,-84.9 -332.217,38.81 -133.171,38.81C-82.011,38.81 -7.939,28.217 -7.939,-32.649C-7.939,-37.394 -8.062,-42.017 -9.195,-46.651L0,-7.952Z" style="fill:rgb(3,4,5);fill-rule:nonzero;"/>
                            </g>
                            <g transform="matrix(1,0,0,1,922.713,134.967)">
                                <path d="M0,311.969L74.01,311.969L74.01,202.241L130.374,202.241L187.188,311.969L269.781,311.969L203.528,191.495C239.247,175.982 260.341,143.713 260.341,106.718C260.341,52.507 217.723,10.768 154.042,10.768L0,10.768L0,311.969ZM147.164,74.01C171.676,74.01 185.454,89.502 185.454,108.014C185.454,126.517 171.676,141.998 147.164,141.998L74.01,141.998L74.01,74.01L147.164,74.01ZM267.209,198.373C267.209,264.627 321.431,316.276 391.135,316.276C429.423,316.276 457.386,305.949 486.23,281.842L440.192,240.961C429.423,252.145 413.494,258.187 394.583,258.187C368.753,258.187 347.659,243.971 338.627,222.03L500.863,222.03L500.863,204.833C500.863,132.538 452.225,80.469 385.97,80.469C319.278,80.469 267.209,132.109 267.209,198.373M384.673,137.274C406.625,137.274 425.118,151.469 432.437,173.411L337.331,173.411C344.229,150.612 361.437,137.274 384.673,137.274M700.51,311.969L769.356,311.969L769.356,-4.307L699.656,10.768L699.656,96.391C682.426,86.49 662.638,81.327 641.566,81.327C575.292,81.327 523.222,132.538 523.222,197.935C523.222,263.35 574.434,314.969 639.411,314.969C661.783,314.969 682.868,308.101 700.51,295.181L700.51,311.969ZM591.628,197.935C591.628,165.246 617.471,140.283 651.454,140.283C670.383,140.283 687.591,146.743 699.656,157.929L699.656,237.52C687.174,249.574 670.826,255.595 651.454,255.595C617.887,255.595 591.628,230.643 591.628,197.935M873.667,311.969L947.678,311.969L947.678,194.067L1071.59,194.067L1071.59,311.969L1145.6,311.969L1145.6,10.768L1071.59,10.768L1071.59,126.517L947.678,126.517L947.678,10.768L873.667,10.768L873.667,311.969ZM1251.9,315.827C1276.43,315.827 1296.23,310.676 1314.73,298.191L1314.73,311.969L1383.55,311.969L1383.55,166.104C1383.55,110.585 1346.12,80.031 1283.74,80.031C1248.88,80.031 1214.47,88.226 1177.46,105.004L1202.42,156.194C1229.08,145.01 1251.47,138.13 1271.25,138.13C1300.09,138.13 1314.73,149.316 1314.73,172.114L1314.73,183.3C1298.38,179.014 1281.15,176.859 1263.09,176.859C1204.57,176.859 1169.28,201.383 1169.28,245.267C1169.28,285.294 1201.12,315.827 1251.9,315.827M1230.63,243.971C1230.63,228.928 1245.69,221.612 1268.47,221.612C1283.56,221.612 1297.34,223.765 1309.81,226.775L1309.81,256.034C1296.89,263.35 1281.84,266.78 1266.33,266.78C1243.98,266.78 1230.63,258.187 1230.63,243.971M1447.23,242.695C1447.23,291.313 1476.5,314.969 1529.86,314.969C1542.75,314.969 1565.15,311.969 1578.48,308.101L1578.48,251.727C1566.86,255.176 1558.27,256.452 1547.08,256.452C1525.12,256.452 1516.96,249.574 1516.96,228.928L1516.96,142.437L1580.64,142.437L1580.64,84.338L1516.96,84.338L1516.96,10.768L1447.23,25.809L1447.23,84.338L1401.21,84.338L1401.21,142.437L1447.23,142.437L1447.23,242.695Z" style="fill:white;fill-rule:nonzero;"/>
                            </g>
                        </g>
                        <g transform="matrix(1,0,0,1,2344,1715.53)">
                            <rect x="2" y="75" width="229" height="35" style="fill:rgb(228,16,43);"/>
                        </g>
                        <g transform="matrix(1,0,0,1,2344,1752.53)">
                            <rect x="2" y="75" width="229" height="35" style="fill:rgb(75,75,74);"/>
                        </g>
                        <g transform="matrix(0.947335,0,0,0.957868,2344.73,1721.31)">
                            <g transform="matrix(20,0,0,20,14,97)">
                                <path d="M0.063,-0L0.063,-0.7L0.414,-0.7C0.448,-0.7 0.48,-0.695 0.508,-0.684C0.538,-0.673 0.562,-0.657 0.583,-0.638C0.604,-0.619 0.62,-0.596 0.631,-0.569C0.643,-0.542 0.649,-0.512 0.649,-0.48C0.649,-0.449 0.643,-0.42 0.631,-0.394C0.62,-0.367 0.604,-0.344 0.583,-0.325C0.562,-0.306 0.537,-0.291 0.508,-0.28C0.479,-0.269 0.448,-0.264 0.414,-0.264L0.208,-0.264L0.208,-0L0.063,-0ZM0.398,-0.575L0.208,-0.575L0.208,-0.384L0.398,-0.384C0.429,-0.384 0.455,-0.393 0.473,-0.41C0.493,-0.427 0.502,-0.45 0.502,-0.479C0.502,-0.508 0.493,-0.531 0.473,-0.549C0.455,-0.566 0.429,-0.575 0.398,-0.575Z" style="fill:white;fill-rule:nonzero;"/>
                            </g>
                            <g transform="matrix(20,0,0,20,27.62,97)">
                                <path d="M0.054,-0L0.054,-0.521L0.191,-0.521L0.191,-0.464C0.208,-0.487 0.228,-0.504 0.252,-0.516C0.275,-0.527 0.301,-0.533 0.33,-0.533C0.343,-0.532 0.355,-0.531 0.364,-0.53C0.373,-0.528 0.38,-0.525 0.387,-0.521L0.387,-0.401C0.377,-0.406 0.366,-0.409 0.354,-0.411C0.342,-0.414 0.33,-0.415 0.317,-0.415C0.29,-0.415 0.266,-0.408 0.244,-0.395C0.221,-0.382 0.204,-0.362 0.191,-0.337L0.191,-0L0.054,-0Z" style="fill:white;fill-rule:nonzero;"/>
                            </g>
                            <g transform="matrix(20,0,0,20,35.26,97)">
                                <path d="M0.521,-0.065C0.489,-0.039 0.456,-0.02 0.423,-0.008C0.389,0.004 0.351,0.01 0.31,0.01C0.271,0.01 0.234,0.003 0.2,-0.011C0.165,-0.025 0.136,-0.044 0.111,-0.068C0.086,-0.092 0.066,-0.121 0.051,-0.154C0.037,-0.187 0.03,-0.222 0.03,-0.26C0.03,-0.297 0.037,-0.333 0.051,-0.366C0.064,-0.399 0.083,-0.427 0.107,-0.452C0.131,-0.476 0.16,-0.495 0.193,-0.509C0.226,-0.523 0.261,-0.53 0.298,-0.53C0.335,-0.53 0.369,-0.523 0.401,-0.508C0.432,-0.494 0.46,-0.475 0.483,-0.45C0.505,-0.425 0.524,-0.396 0.537,-0.362C0.55,-0.327 0.556,-0.29 0.556,-0.25L0.556,-0.214L0.168,-0.214C0.177,-0.181 0.195,-0.155 0.222,-0.135C0.249,-0.115 0.28,-0.105 0.316,-0.105C0.339,-0.105 0.36,-0.109 0.38,-0.116C0.4,-0.123 0.417,-0.134 0.431,-0.147L0.521,-0.065ZM0.295,-0.417C0.264,-0.417 0.237,-0.407 0.214,-0.389C0.191,-0.37 0.176,-0.344 0.167,-0.312L0.422,-0.312C0.413,-0.343 0.398,-0.368 0.375,-0.388C0.352,-0.407 0.325,-0.417 0.295,-0.417Z" style="fill:white;fill-rule:nonzero;"/>
                            </g>
                            <g transform="matrix(20,0,0,20,46.98,97)">
                                <path d="M0.054,-0L0.054,-0.521L0.191,-0.521L0.191,-0.482C0.21,-0.498 0.23,-0.51 0.253,-0.519C0.276,-0.527 0.3,-0.531 0.327,-0.531C0.36,-0.531 0.391,-0.524 0.418,-0.51C0.445,-0.497 0.467,-0.478 0.484,-0.453C0.505,-0.478 0.53,-0.498 0.559,-0.511C0.588,-0.524 0.621,-0.531 0.656,-0.531C0.714,-0.531 0.762,-0.512 0.799,-0.473C0.836,-0.434 0.855,-0.385 0.855,-0.324L0.855,-0L0.718,-0L0.718,-0.304C0.718,-0.337 0.709,-0.363 0.692,-0.383C0.674,-0.403 0.65,-0.413 0.62,-0.413C0.599,-0.413 0.581,-0.408 0.564,-0.4C0.547,-0.391 0.532,-0.378 0.52,-0.361C0.521,-0.355 0.521,-0.349 0.522,-0.343C0.523,-0.337 0.523,-0.331 0.523,-0.324L0.523,-0L0.386,-0L0.386,-0.304C0.386,-0.337 0.377,-0.363 0.36,-0.383C0.342,-0.403 0.318,-0.413 0.288,-0.413C0.267,-0.413 0.249,-0.409 0.233,-0.401C0.217,-0.393 0.203,-0.381 0.191,-0.366L0.191,-0L0.054,-0Z" style="fill:white;fill-rule:nonzero;"/>
                            </g>
                            <g transform="matrix(20,0,0,20,65.1,97)">
                                <path d="M0.122,-0.583C0.101,-0.583 0.082,-0.591 0.067,-0.606C0.052,-0.621 0.044,-0.64 0.044,-0.661C0.044,-0.682 0.052,-0.701 0.067,-0.716C0.082,-0.731 0.101,-0.739 0.122,-0.739C0.143,-0.739 0.162,-0.731 0.177,-0.716C0.192,-0.701 0.2,-0.682 0.2,-0.661C0.2,-0.64 0.192,-0.621 0.177,-0.606C0.162,-0.591 0.143,-0.583 0.122,-0.583ZM0.191,-0.521L0.191,-0L0.054,-0L0.054,-0.521L0.191,-0.521Z" style="fill:white;fill-rule:nonzero;"/>
                            </g>
                            <g transform="matrix(20,0,0,20,69.98,97)">
                                <path d="M0.521,-0.065C0.489,-0.039 0.456,-0.02 0.423,-0.008C0.389,0.004 0.351,0.01 0.31,0.01C0.271,0.01 0.234,0.003 0.2,-0.011C0.165,-0.025 0.136,-0.044 0.111,-0.068C0.086,-0.092 0.066,-0.121 0.051,-0.154C0.037,-0.187 0.03,-0.222 0.03,-0.26C0.03,-0.297 0.037,-0.333 0.051,-0.366C0.064,-0.399 0.083,-0.427 0.107,-0.452C0.131,-0.476 0.16,-0.495 0.193,-0.509C0.226,-0.523 0.261,-0.53 0.298,-0.53C0.335,-0.53 0.369,-0.523 0.401,-0.508C0.432,-0.494 0.46,-0.475 0.483,-0.45C0.505,-0.425 0.524,-0.396 0.537,-0.362C0.55,-0.327 0.556,-0.29 0.556,-0.25L0.556,-0.214L0.168,-0.214C0.177,-0.181 0.195,-0.155 0.222,-0.135C0.249,-0.115 0.28,-0.105 0.316,-0.105C0.339,-0.105 0.36,-0.109 0.38,-0.116C0.4,-0.123 0.417,-0.134 0.431,-0.147L0.521,-0.065ZM0.295,-0.417C0.264,-0.417 0.237,-0.407 0.214,-0.389C0.191,-0.37 0.176,-0.344 0.167,-0.312L0.422,-0.312C0.413,-0.343 0.398,-0.368 0.375,-0.388C0.352,-0.407 0.325,-0.417 0.295,-0.417Z" style="fill:white;fill-rule:nonzero;"/>
                            </g>
                            <g transform="matrix(20,0,0,20,81.7,97)">
                                <path d="M0.054,-0L0.054,-0.521L0.191,-0.521L0.191,-0.464C0.208,-0.487 0.228,-0.504 0.252,-0.516C0.275,-0.527 0.301,-0.533 0.33,-0.533C0.343,-0.532 0.355,-0.531 0.364,-0.53C0.373,-0.528 0.38,-0.525 0.387,-0.521L0.387,-0.401C0.377,-0.406 0.366,-0.409 0.354,-0.411C0.342,-0.414 0.33,-0.415 0.317,-0.415C0.29,-0.415 0.266,-0.408 0.244,-0.395C0.221,-0.382 0.204,-0.362 0.191,-0.337L0.191,-0L0.054,-0Z" style="fill:white;fill-rule:nonzero;"/>
                            </g>
                        </g>
                        <g transform="matrix(0.947335,0,0,0.957868,2344.73,1758.01)">
                            <g transform="matrix(20,0,0,20,14,97)">
                                <path d="M0.063,-0.7L0.392,-0.7C0.462,-0.7 0.519,-0.682 0.563,-0.647C0.607,-0.611 0.629,-0.565 0.629,-0.508C0.629,-0.477 0.621,-0.449 0.606,-0.424C0.591,-0.399 0.57,-0.378 0.543,-0.361C0.576,-0.345 0.603,-0.323 0.623,-0.296C0.643,-0.268 0.653,-0.237 0.653,-0.203C0.653,-0.142 0.63,-0.093 0.586,-0.056C0.541,-0.019 0.481,-0 0.408,-0L0.063,-0L0.063,-0.7ZM0.383,-0.58L0.208,-0.58L0.208,-0.414L0.383,-0.414C0.414,-0.414 0.438,-0.422 0.457,-0.437C0.476,-0.452 0.485,-0.472 0.485,-0.497C0.485,-0.522 0.476,-0.543 0.457,-0.558C0.438,-0.573 0.414,-0.58 0.383,-0.58ZM0.397,-0.12C0.43,-0.12 0.457,-0.128 0.477,-0.145C0.497,-0.161 0.507,-0.183 0.507,-0.211C0.507,-0.238 0.497,-0.259 0.477,-0.276C0.457,-0.293 0.43,-0.301 0.397,-0.301L0.208,-0.301L0.208,-0.12L0.397,-0.12Z" style="fill:white;fill-rule:nonzero;"/>
                            </g>
                            <g transform="matrix(20,0,0,20,27.62,97)">
                                <path d="M0.187,-0.521L0.187,-0.218C0.187,-0.185 0.197,-0.158 0.217,-0.138C0.236,-0.118 0.262,-0.108 0.295,-0.108C0.318,-0.108 0.339,-0.113 0.358,-0.122C0.376,-0.131 0.391,-0.143 0.403,-0.16L0.403,-0.521L0.54,-0.521L0.54,-0L0.403,-0L0.403,-0.042C0.383,-0.025 0.361,-0.013 0.336,-0.004C0.311,0.005 0.285,0.01 0.256,0.01C0.196,0.01 0.147,-0.01 0.108,-0.049C0.069,-0.087 0.05,-0.137 0.05,-0.198L0.05,-0.521L0.187,-0.521Z" style="fill:white;fill-rule:nonzero;"/>
                            </g>
                            <g transform="matrix(20,0,0,20,39.48,97)">
                                <path d="M0.01,-0.062L0.078,-0.153C0.109,-0.133 0.138,-0.118 0.165,-0.109C0.192,-0.099 0.22,-0.094 0.247,-0.094C0.278,-0.094 0.302,-0.099 0.321,-0.109C0.339,-0.119 0.348,-0.132 0.348,-0.149C0.348,-0.162 0.343,-0.173 0.333,-0.181C0.322,-0.189 0.306,-0.195 0.283,-0.198L0.183,-0.213C0.132,-0.221 0.093,-0.238 0.066,-0.263C0.039,-0.288 0.025,-0.322 0.025,-0.364C0.025,-0.414 0.045,-0.454 0.084,-0.484C0.123,-0.514 0.176,-0.529 0.242,-0.529C0.28,-0.529 0.317,-0.524 0.353,-0.513C0.389,-0.501 0.423,-0.485 0.456,-0.464L0.39,-0.376C0.361,-0.393 0.334,-0.405 0.308,-0.413C0.282,-0.422 0.256,-0.426 0.229,-0.426C0.204,-0.426 0.185,-0.421 0.17,-0.412C0.155,-0.403 0.147,-0.39 0.147,-0.375C0.147,-0.361 0.153,-0.35 0.164,-0.343C0.174,-0.335 0.193,-0.329 0.218,-0.326L0.318,-0.311C0.369,-0.304 0.408,-0.287 0.436,-0.261C0.463,-0.235 0.477,-0.202 0.477,-0.162C0.477,-0.137 0.471,-0.115 0.46,-0.094C0.448,-0.073 0.432,-0.054 0.412,-0.039C0.392,-0.024 0.368,-0.012 0.34,-0.003C0.312,0.006 0.282,0.01 0.249,0.01C0.202,0.01 0.157,0.004 0.116,-0.009C0.075,-0.021 0.039,-0.039 0.01,-0.062Z" style="fill:white;fill-rule:nonzero;"/>
                            </g>
                            <g transform="matrix(20,0,0,20,49.3,97)">
                                <path d="M0.122,-0.583C0.101,-0.583 0.082,-0.591 0.067,-0.606C0.052,-0.621 0.044,-0.64 0.044,-0.661C0.044,-0.682 0.052,-0.701 0.067,-0.716C0.082,-0.731 0.101,-0.739 0.122,-0.739C0.143,-0.739 0.162,-0.731 0.177,-0.716C0.192,-0.701 0.2,-0.682 0.2,-0.661C0.2,-0.64 0.192,-0.621 0.177,-0.606C0.162,-0.591 0.143,-0.583 0.122,-0.583ZM0.191,-0.521L0.191,-0L0.054,-0L0.054,-0.521L0.191,-0.521Z" style="fill:white;fill-rule:nonzero;"/>
                            </g>
                            <g transform="matrix(20,0,0,20,54.18,97)">
                                <path d="M0.054,-0L0.054,-0.521L0.191,-0.521L0.191,-0.48C0.211,-0.497 0.233,-0.509 0.258,-0.518C0.282,-0.527 0.308,-0.531 0.337,-0.531C0.397,-0.531 0.446,-0.512 0.485,-0.473C0.524,-0.434 0.543,-0.385 0.543,-0.324L0.543,-0L0.406,-0L0.406,-0.304C0.406,-0.337 0.396,-0.363 0.377,-0.383C0.357,-0.403 0.331,-0.413 0.298,-0.413C0.275,-0.413 0.255,-0.408 0.236,-0.4C0.218,-0.391 0.203,-0.378 0.191,-0.361L0.191,-0L0.054,-0Z" style="fill:white;fill-rule:nonzero;"/>
                            </g>
                            <g transform="matrix(20,0,0,20,66.04,97)">
                                <path d="M0.521,-0.065C0.489,-0.039 0.456,-0.02 0.423,-0.008C0.389,0.004 0.351,0.01 0.31,0.01C0.271,0.01 0.234,0.003 0.2,-0.011C0.165,-0.025 0.136,-0.044 0.111,-0.068C0.086,-0.092 0.066,-0.121 0.051,-0.154C0.037,-0.187 0.03,-0.222 0.03,-0.26C0.03,-0.297 0.037,-0.333 0.051,-0.366C0.064,-0.399 0.083,-0.427 0.107,-0.452C0.131,-0.476 0.16,-0.495 0.193,-0.509C0.226,-0.523 0.261,-0.53 0.298,-0.53C0.335,-0.53 0.369,-0.523 0.401,-0.508C0.432,-0.494 0.46,-0.475 0.483,-0.45C0.505,-0.425 0.524,-0.396 0.537,-0.362C0.55,-0.327 0.556,-0.29 0.556,-0.25L0.556,-0.214L0.168,-0.214C0.177,-0.181 0.195,-0.155 0.222,-0.135C0.249,-0.115 0.28,-0.105 0.316,-0.105C0.339,-0.105 0.36,-0.109 0.38,-0.116C0.4,-0.123 0.417,-0.134 0.431,-0.147L0.521,-0.065ZM0.295,-0.417C0.264,-0.417 0.237,-0.407 0.214,-0.389C0.191,-0.37 0.176,-0.344 0.167,-0.312L0.422,-0.312C0.413,-0.343 0.398,-0.368 0.375,-0.388C0.352,-0.407 0.325,-0.417 0.295,-0.417Z" style="fill:white;fill-rule:nonzero;"/>
                            </g>
                            <g transform="matrix(20,0,0,20,77.86,97)">
                                <path d="M0.01,-0.062L0.078,-0.153C0.109,-0.133 0.138,-0.118 0.165,-0.109C0.192,-0.099 0.22,-0.094 0.247,-0.094C0.278,-0.094 0.302,-0.099 0.321,-0.109C0.339,-0.119 0.348,-0.132 0.348,-0.149C0.348,-0.162 0.343,-0.173 0.333,-0.181C0.322,-0.189 0.306,-0.195 0.283,-0.198L0.183,-0.213C0.132,-0.221 0.093,-0.238 0.066,-0.263C0.039,-0.288 0.025,-0.322 0.025,-0.364C0.025,-0.414 0.045,-0.454 0.084,-0.484C0.123,-0.514 0.176,-0.529 0.242,-0.529C0.28,-0.529 0.317,-0.524 0.353,-0.513C0.389,-0.501 0.423,-0.485 0.456,-0.464L0.39,-0.376C0.361,-0.393 0.334,-0.405 0.308,-0.413C0.282,-0.422 0.256,-0.426 0.229,-0.426C0.204,-0.426 0.185,-0.421 0.17,-0.412C0.155,-0.403 0.147,-0.39 0.147,-0.375C0.147,-0.361 0.153,-0.35 0.164,-0.343C0.174,-0.335 0.193,-0.329 0.218,-0.326L0.318,-0.311C0.369,-0.304 0.408,-0.287 0.436,-0.261C0.463,-0.235 0.477,-0.202 0.477,-0.162C0.477,-0.137 0.471,-0.115 0.46,-0.094C0.448,-0.073 0.432,-0.054 0.412,-0.039C0.392,-0.024 0.368,-0.012 0.34,-0.003C0.312,0.006 0.282,0.01 0.249,0.01C0.202,0.01 0.157,0.004 0.116,-0.009C0.075,-0.021 0.039,-0.039 0.01,-0.062Z" style="fill:white;fill-rule:nonzero;"/>
                            </g>
                            <g transform="matrix(20,0,0,20,87.72,97)">
                                <path d="M0.01,-0.062L0.078,-0.153C0.109,-0.133 0.138,-0.118 0.165,-0.109C0.192,-0.099 0.22,-0.094 0.247,-0.094C0.278,-0.094 0.302,-0.099 0.321,-0.109C0.339,-0.119 0.348,-0.132 0.348,-0.149C0.348,-0.162 0.343,-0.173 0.333,-0.181C0.322,-0.189 0.306,-0.195 0.283,-0.198L0.183,-0.213C0.132,-0.221 0.093,-0.238 0.066,-0.263C0.039,-0.288 0.025,-0.322 0.025,-0.364C0.025,-0.414 0.045,-0.454 0.084,-0.484C0.123,-0.514 0.176,-0.529 0.242,-0.529C0.28,-0.529 0.317,-0.524 0.353,-0.513C0.389,-0.501 0.423,-0.485 0.456,-0.464L0.39,-0.376C0.361,-0.393 0.334,-0.405 0.308,-0.413C0.282,-0.422 0.256,-0.426 0.229,-0.426C0.204,-0.426 0.185,-0.421 0.17,-0.412C0.155,-0.403 0.147,-0.39 0.147,-0.375C0.147,-0.361 0.153,-0.35 0.164,-0.343C0.174,-0.335 0.193,-0.329 0.218,-0.326L0.318,-0.311C0.369,-0.304 0.408,-0.287 0.436,-0.261C0.463,-0.235 0.477,-0.202 0.477,-0.162C0.477,-0.137 0.471,-0.115 0.46,-0.094C0.448,-0.073 0.432,-0.054 0.412,-0.039C0.392,-0.024 0.368,-0.012 0.34,-0.003C0.312,0.006 0.282,0.01 0.249,0.01C0.202,0.01 0.157,0.004 0.116,-0.009C0.075,-0.021 0.039,-0.039 0.01,-0.062Z" style="fill:white;fill-rule:nonzero;"/>
                            </g>
                            <g transform="matrix(20,0,0,20,101.56,97)">
                                <path d="M0.063,-0L0.063,-0.7L0.414,-0.7C0.448,-0.7 0.48,-0.695 0.508,-0.684C0.538,-0.673 0.562,-0.657 0.583,-0.638C0.604,-0.619 0.62,-0.596 0.631,-0.569C0.643,-0.542 0.649,-0.512 0.649,-0.48C0.649,-0.449 0.643,-0.42 0.631,-0.394C0.62,-0.367 0.604,-0.344 0.583,-0.325C0.562,-0.306 0.537,-0.291 0.508,-0.28C0.479,-0.269 0.448,-0.264 0.414,-0.264L0.208,-0.264L0.208,-0L0.063,-0ZM0.398,-0.575L0.208,-0.575L0.208,-0.384L0.398,-0.384C0.429,-0.384 0.455,-0.393 0.473,-0.41C0.493,-0.427 0.502,-0.45 0.502,-0.479C0.502,-0.508 0.493,-0.531 0.473,-0.549C0.455,-0.566 0.429,-0.575 0.398,-0.575Z" style="fill:white;fill-rule:nonzero;"/>
                            </g>
                            <g transform="matrix(20,0,0,20,114.74,97)">
                                <path d="M0.219,0.009C0.163,0.009 0.117,-0.006 0.082,-0.035C0.047,-0.065 0.029,-0.104 0.029,-0.151C0.029,-0.2 0.048,-0.239 0.086,-0.267C0.124,-0.295 0.176,-0.309 0.243,-0.309C0.264,-0.309 0.286,-0.307 0.307,-0.304C0.328,-0.301 0.349,-0.296 0.37,-0.289L0.37,-0.326C0.37,-0.356 0.361,-0.379 0.342,-0.394C0.323,-0.409 0.296,-0.417 0.26,-0.417C0.238,-0.417 0.214,-0.413 0.189,-0.406C0.163,-0.4 0.134,-0.389 0.101,-0.374L0.051,-0.475C0.092,-0.494 0.131,-0.508 0.17,-0.517C0.208,-0.526 0.246,-0.531 0.283,-0.531C0.353,-0.531 0.407,-0.514 0.447,-0.481C0.486,-0.447 0.505,-0.399 0.505,-0.338L0.505,-0L0.37,-0L0.37,-0.036C0.348,-0.021 0.325,-0.009 0.301,-0.002C0.276,0.005 0.249,0.009 0.219,0.009ZM0.16,-0.154C0.16,-0.134 0.169,-0.118 0.186,-0.107C0.203,-0.095 0.226,-0.089 0.255,-0.089C0.278,-0.089 0.299,-0.092 0.318,-0.098C0.337,-0.103 0.354,-0.111 0.37,-0.122L0.37,-0.2C0.353,-0.207 0.336,-0.212 0.318,-0.215C0.299,-0.218 0.28,-0.219 0.26,-0.219C0.229,-0.219 0.204,-0.213 0.187,-0.202C0.169,-0.19 0.16,-0.174 0.16,-0.154Z" style="fill:white;fill-rule:nonzero;"/>
                            </g>
                            <g transform="matrix(20,0,0,20,125.84,97)">
                                <path d="M0.054,-0L0.054,-0.521L0.191,-0.521L0.191,-0.464C0.208,-0.487 0.228,-0.504 0.252,-0.516C0.275,-0.527 0.301,-0.533 0.33,-0.533C0.343,-0.532 0.355,-0.531 0.364,-0.53C0.373,-0.528 0.38,-0.525 0.387,-0.521L0.387,-0.401C0.377,-0.406 0.366,-0.409 0.354,-0.411C0.342,-0.414 0.33,-0.415 0.317,-0.415C0.29,-0.415 0.266,-0.408 0.244,-0.395C0.221,-0.382 0.204,-0.362 0.191,-0.337L0.191,-0L0.054,-0Z" style="fill:white;fill-rule:nonzero;"/>
                            </g>
                            <g transform="matrix(20,0,0,20,134.14,97)">
                                <path d="M0.125,-0.147L0.125,-0.406L0.018,-0.406L0.018,-0.521L0.125,-0.521L0.125,-0.654L0.262,-0.685L0.262,-0.521L0.41,-0.521L0.41,-0.406L0.262,-0.406L0.262,-0.175C0.262,-0.15 0.267,-0.133 0.278,-0.123C0.289,-0.113 0.307,-0.108 0.334,-0.108C0.347,-0.108 0.359,-0.109 0.37,-0.111C0.381,-0.112 0.394,-0.115 0.407,-0.12L0.407,-0.008C0.392,-0.003 0.375,0 0.354,0.003C0.333,0.006 0.316,0.008 0.301,0.008C0.243,0.008 0.199,-0.005 0.17,-0.032C0.14,-0.058 0.125,-0.096 0.125,-0.147Z" style="fill:white;fill-rule:nonzero;"/>
                            </g>
                            <g transform="matrix(20,0,0,20,142.62,97)">
                                <path d="M0.054,-0L0.054,-0.521L0.191,-0.521L0.191,-0.48C0.211,-0.497 0.233,-0.509 0.258,-0.518C0.282,-0.527 0.308,-0.531 0.337,-0.531C0.397,-0.531 0.446,-0.512 0.485,-0.473C0.524,-0.434 0.543,-0.385 0.543,-0.324L0.543,-0L0.406,-0L0.406,-0.304C0.406,-0.337 0.396,-0.363 0.377,-0.383C0.357,-0.403 0.331,-0.413 0.298,-0.413C0.275,-0.413 0.255,-0.408 0.236,-0.4C0.218,-0.391 0.203,-0.378 0.191,-0.361L0.191,-0L0.054,-0Z" style="fill:white;fill-rule:nonzero;"/>
                            </g>
                            <g transform="matrix(20,0,0,20,154.48,97)">
                                <path d="M0.521,-0.065C0.489,-0.039 0.456,-0.02 0.423,-0.008C0.389,0.004 0.351,0.01 0.31,0.01C0.271,0.01 0.234,0.003 0.2,-0.011C0.165,-0.025 0.136,-0.044 0.111,-0.068C0.086,-0.092 0.066,-0.121 0.051,-0.154C0.037,-0.187 0.03,-0.222 0.03,-0.26C0.03,-0.297 0.037,-0.333 0.051,-0.366C0.064,-0.399 0.083,-0.427 0.107,-0.452C0.131,-0.476 0.16,-0.495 0.193,-0.509C0.226,-0.523 0.261,-0.53 0.298,-0.53C0.335,-0.53 0.369,-0.523 0.401,-0.508C0.432,-0.494 0.46,-0.475 0.483,-0.45C0.505,-0.425 0.524,-0.396 0.537,-0.362C0.55,-0.327 0.556,-0.29 0.556,-0.25L0.556,-0.214L0.168,-0.214C0.177,-0.181 0.195,-0.155 0.222,-0.135C0.249,-0.115 0.28,-0.105 0.316,-0.105C0.339,-0.105 0.36,-0.109 0.38,-0.116C0.4,-0.123 0.417,-0.134 0.431,-0.147L0.521,-0.065ZM0.295,-0.417C0.264,-0.417 0.237,-0.407 0.214,-0.389C0.191,-0.37 0.176,-0.344 0.167,-0.312L0.422,-0.312C0.413,-0.343 0.398,-0.368 0.375,-0.388C0.352,-0.407 0.325,-0.417 0.295,-0.417Z" style="fill:white;fill-rule:nonzero;"/>
                            </g>
                            <g transform="matrix(20,0,0,20,166.2,97)">
                                <path d="M0.054,-0L0.054,-0.521L0.191,-0.521L0.191,-0.464C0.208,-0.487 0.228,-0.504 0.252,-0.516C0.275,-0.527 0.301,-0.533 0.33,-0.533C0.343,-0.532 0.355,-0.531 0.364,-0.53C0.373,-0.528 0.38,-0.525 0.387,-0.521L0.387,-0.401C0.377,-0.406 0.366,-0.409 0.354,-0.411C0.342,-0.414 0.33,-0.415 0.317,-0.415C0.29,-0.415 0.266,-0.408 0.244,-0.395C0.221,-0.382 0.204,-0.362 0.191,-0.337L0.191,-0L0.054,-0Z" style="fill:white;fill-rule:nonzero;"/>
                            </g>
                        </g>
                        <g transform="matrix(0.0914774,0,0,0.0914774,2077,1715.47)">
                            <g transform="matrix(1,0,0,1,652.688,296.367)">
                                <path d="M0,-3.553C7.074,29.971 7.074,33.493 7.074,37.902C7.074,95.246 -57.324,126.996 -141.999,126.996C-333.401,126.996 -500.964,14.97 -500.964,-59.121C-500.964,-70.603 -498.331,-81.175 -494.799,-89.094C-563.605,-85.563 -652.688,-73.234 -652.688,5.276C-652.688,134.039 -347.516,292.814 -105.84,292.814C79.388,292.814 126.119,209.015 126.119,142.865C126.119,90.817 81.144,31.739 0,-3.553M-133.171,43.209C-82.011,43.209 -7.939,32.616 -7.939,-28.25C-7.939,-32.995 -8.062,-37.618 -9.195,-42.252L-39.668,-174.657C-46.751,-203.753 -52.916,-216.989 -104.064,-242.565C-143.773,-262.863 -230.193,-296.367 -255.779,-296.367C-279.587,-296.367 -286.649,-265.515 -314.868,-265.515C-342.198,-265.515 -362.497,-288.428 -388.082,-288.428C-412.769,-288.428 -428.648,-271.679 -440.998,-237.278C-440.998,-237.278 -475.399,-140.264 -479.808,-126.15C-480.696,-123.497 -480.716,-120.528 -480.716,-118.21C-480.716,-80.501 -332.217,43.209 -133.171,43.209" style="fill:rgb(237,40,55);fill-rule:nonzero;"/>
                            </g>
                            <g transform="matrix(1,0,0,1,652.688,300.766)">
                                <path d="M0,-7.952C7.074,25.572 7.074,29.094 7.074,33.503C7.074,90.847 -57.324,122.597 -141.999,122.597C-333.401,122.597 -500.964,10.571 -500.964,-63.52C-500.964,-75.002 -498.331,-85.574 -494.799,-93.493L-479.808,-130.549C-480.696,-127.896 -480.716,-124.927 -480.716,-122.609C-480.716,-84.9 -332.217,38.81 -133.171,38.81C-82.011,38.81 -7.939,28.217 -7.939,-32.649C-7.939,-37.394 -8.062,-42.017 -9.195,-46.651L0,-7.952Z" style="fill:rgb(3,4,5);fill-rule:nonzero;"/>
                            </g>
                            <g transform="matrix(1,0,0,1,922.713,134.967)">
                                <path d="M0,311.969L74.01,311.969L74.01,202.241L130.374,202.241L187.188,311.969L269.781,311.969L203.528,191.495C239.247,175.982 260.341,143.713 260.341,106.718C260.341,52.507 217.723,10.768 154.042,10.768L0,10.768L0,311.969ZM147.164,74.01C171.676,74.01 185.454,89.502 185.454,108.014C185.454,126.517 171.676,141.998 147.164,141.998L74.01,141.998L74.01,74.01L147.164,74.01ZM267.209,198.373C267.209,264.627 321.431,316.276 391.135,316.276C429.423,316.276 457.386,305.949 486.23,281.842L440.192,240.961C429.423,252.145 413.494,258.187 394.583,258.187C368.753,258.187 347.659,243.971 338.627,222.03L500.863,222.03L500.863,204.833C500.863,132.538 452.225,80.469 385.97,80.469C319.278,80.469 267.209,132.109 267.209,198.373M384.673,137.274C406.625,137.274 425.118,151.469 432.437,173.411L337.331,173.411C344.229,150.612 361.437,137.274 384.673,137.274M700.51,311.969L769.356,311.969L769.356,-4.307L699.656,10.768L699.656,96.391C682.426,86.49 662.638,81.327 641.566,81.327C575.292,81.327 523.222,132.538 523.222,197.935C523.222,263.35 574.434,314.969 639.411,314.969C661.783,314.969 682.868,308.101 700.51,295.181L700.51,311.969ZM591.628,197.935C591.628,165.246 617.471,140.283 651.454,140.283C670.383,140.283 687.591,146.743 699.656,157.929L699.656,237.52C687.174,249.574 670.826,255.595 651.454,255.595C617.887,255.595 591.628,230.643 591.628,197.935M873.667,311.969L947.678,311.969L947.678,194.067L1071.59,194.067L1071.59,311.969L1145.6,311.969L1145.6,10.768L1071.59,10.768L1071.59,126.517L947.678,126.517L947.678,10.768L873.667,10.768L873.667,311.969ZM1251.9,315.827C1276.43,315.827 1296.23,310.676 1314.73,298.191L1314.73,311.969L1383.55,311.969L1383.55,166.104C1383.55,110.585 1346.12,80.031 1283.74,80.031C1248.88,80.031 1214.47,88.226 1177.46,105.004L1202.42,156.194C1229.08,145.01 1251.47,138.13 1271.25,138.13C1300.09,138.13 1314.73,149.316 1314.73,172.114L1314.73,183.3C1298.38,179.014 1281.15,176.859 1263.09,176.859C1204.57,176.859 1169.28,201.383 1169.28,245.267C1169.28,285.294 1201.12,315.827 1251.9,315.827M1230.63,243.971C1230.63,228.928 1245.69,221.612 1268.47,221.612C1283.56,221.612 1297.34,223.765 1309.81,226.775L1309.81,256.034C1296.89,263.35 1281.84,266.78 1266.33,266.78C1243.98,266.78 1230.63,258.187 1230.63,243.971M1447.23,242.695C1447.23,291.313 1476.5,314.969 1529.86,314.969C1542.75,314.969 1565.15,311.969 1578.48,308.101L1578.48,251.727C1566.86,255.176 1558.27,256.452 1547.08,256.452C1525.12,256.452 1516.96,249.574 1516.96,228.928L1516.96,142.437L1580.64,142.437L1580.64,84.338L1516.96,84.338L1516.96,10.768L1447.23,25.809L1447.23,84.338L1401.21,84.338L1401.21,142.437L1447.23,142.437L1447.23,242.695Z" style="fill:white;fill-rule:nonzero;"/>
                            </g>
                        </g>
                        <g transform="matrix(1,0,0,1,2075,1715.53)">
                            <rect x="2" y="75" width="229" height="35" style="fill:rgb(228,16,43);"/>
                        </g>
                        <g transform="matrix(1,0,0,1,2075,1752.53)">
                            <rect x="2" y="75" width="229" height="35" style="fill:rgb(75,75,74);"/>
                        </g>
                        <g transform="matrix(0.947335,0,0,0.957868,2075.73,1721.31)">
                            <g transform="matrix(20,0,0,20,14,97)">
                                <path d="M-0.004,-0L0.284,-0.7L0.452,-0.7L0.736,-0L0.579,-0L0.508,-0.184L0.219,-0.184L0.147,-0L-0.004,-0ZM0.264,-0.3L0.464,-0.3L0.365,-0.558L0.264,-0.3Z" style="fill:white;fill-rule:nonzero;"/>
                            </g>
                            <g transform="matrix(20,0,0,20,28.06,97)">
                                <path d="M0.443,-0L0.443,-0.043C0.422,-0.026 0.399,-0.014 0.374,-0.006C0.349,0.003 0.322,0.007 0.295,0.007C0.258,0.007 0.224,-0 0.192,-0.014C0.159,-0.028 0.131,-0.047 0.107,-0.071C0.083,-0.095 0.064,-0.123 0.051,-0.156C0.037,-0.189 0.03,-0.224 0.03,-0.261C0.03,-0.298 0.037,-0.333 0.051,-0.366C0.065,-0.399 0.084,-0.427 0.108,-0.451C0.132,-0.475 0.161,-0.494 0.194,-0.507C0.227,-0.521 0.262,-0.528 0.299,-0.528C0.324,-0.528 0.349,-0.525 0.374,-0.518C0.398,-0.51 0.42,-0.5 0.441,-0.487L0.441,-0.7L0.578,-0.73L0.578,-0L0.443,-0ZM0.165,-0.261C0.165,-0.219 0.18,-0.183 0.209,-0.154C0.238,-0.125 0.274,-0.11 0.317,-0.11C0.342,-0.11 0.366,-0.114 0.387,-0.123C0.407,-0.132 0.426,-0.144 0.441,-0.16L0.441,-0.363C0.426,-0.378 0.408,-0.39 0.387,-0.399C0.365,-0.408 0.342,-0.412 0.317,-0.412C0.274,-0.412 0.237,-0.398 0.209,-0.369C0.18,-0.34 0.165,-0.304 0.165,-0.261Z" style="fill:white;fill-rule:nonzero;"/>
                            </g>
                            <g transform="matrix(20,0,0,20,40.7,97)">
                                <path d="M0.224,-0L0,-0.521L0.149,-0.521L0.292,-0.174L0.434,-0.521L0.58,-0.521L0.356,-0L0.224,-0Z" style="fill:white;fill-rule:nonzero;"/>
                            </g>
                            <g transform="matrix(20,0,0,20,52.3,97)">
                                <path d="M0.219,0.009C0.163,0.009 0.117,-0.006 0.082,-0.035C0.047,-0.065 0.029,-0.104 0.029,-0.151C0.029,-0.2 0.048,-0.239 0.086,-0.267C0.124,-0.295 0.176,-0.309 0.243,-0.309C0.264,-0.309 0.286,-0.307 0.307,-0.304C0.328,-0.301 0.349,-0.296 0.37,-0.289L0.37,-0.326C0.37,-0.356 0.361,-0.379 0.342,-0.394C0.323,-0.409 0.296,-0.417 0.26,-0.417C0.238,-0.417 0.214,-0.413 0.189,-0.406C0.163,-0.4 0.134,-0.389 0.101,-0.374L0.051,-0.475C0.092,-0.494 0.131,-0.508 0.17,-0.517C0.208,-0.526 0.246,-0.531 0.283,-0.531C0.353,-0.531 0.407,-0.514 0.447,-0.481C0.486,-0.447 0.505,-0.399 0.505,-0.338L0.505,-0L0.37,-0L0.37,-0.036C0.348,-0.021 0.325,-0.009 0.301,-0.002C0.276,0.005 0.249,0.009 0.219,0.009ZM0.16,-0.154C0.16,-0.134 0.169,-0.118 0.186,-0.107C0.203,-0.095 0.226,-0.089 0.255,-0.089C0.278,-0.089 0.299,-0.092 0.318,-0.098C0.337,-0.103 0.354,-0.111 0.37,-0.122L0.37,-0.2C0.353,-0.207 0.336,-0.212 0.318,-0.215C0.299,-0.218 0.28,-0.219 0.26,-0.219C0.229,-0.219 0.204,-0.213 0.187,-0.202C0.169,-0.19 0.16,-0.174 0.16,-0.154Z" style="fill:white;fill-rule:nonzero;"/>
                            </g>
                            <g transform="matrix(20,0,0,20,63.4,97)">
                                <path d="M0.054,-0L0.054,-0.521L0.191,-0.521L0.191,-0.48C0.211,-0.497 0.233,-0.509 0.258,-0.518C0.282,-0.527 0.308,-0.531 0.337,-0.531C0.397,-0.531 0.446,-0.512 0.485,-0.473C0.524,-0.434 0.543,-0.385 0.543,-0.324L0.543,-0L0.406,-0L0.406,-0.304C0.406,-0.337 0.396,-0.363 0.377,-0.383C0.357,-0.403 0.331,-0.413 0.298,-0.413C0.275,-0.413 0.255,-0.408 0.236,-0.4C0.218,-0.391 0.203,-0.378 0.191,-0.361L0.191,-0L0.054,-0Z" style="fill:white;fill-rule:nonzero;"/>
                            </g>
                            <g transform="matrix(20,0,0,20,75.26,97)">
                                <path d="M0.309,-0.11C0.332,-0.11 0.354,-0.115 0.375,-0.124C0.395,-0.133 0.414,-0.148 0.433,-0.168L0.515,-0.083C0.488,-0.054 0.456,-0.031 0.419,-0.015C0.382,0.002 0.343,0.01 0.303,0.01C0.265,0.01 0.229,0.003 0.196,-0.011C0.162,-0.025 0.133,-0.044 0.109,-0.068C0.084,-0.092 0.065,-0.121 0.051,-0.154C0.037,-0.187 0.03,-0.222 0.03,-0.26C0.03,-0.298 0.037,-0.334 0.051,-0.367C0.065,-0.4 0.084,-0.428 0.109,-0.453C0.133,-0.477 0.162,-0.496 0.196,-0.51C0.229,-0.524 0.265,-0.531 0.303,-0.531C0.344,-0.531 0.384,-0.523 0.422,-0.506C0.46,-0.49 0.492,-0.467 0.519,-0.438L0.435,-0.349C0.416,-0.37 0.396,-0.385 0.375,-0.396C0.354,-0.407 0.331,-0.412 0.306,-0.412C0.267,-0.412 0.234,-0.397 0.206,-0.368C0.18,-0.339 0.166,-0.303 0.166,-0.26C0.166,-0.217 0.18,-0.182 0.207,-0.153C0.235,-0.124 0.269,-0.11 0.309,-0.11Z" style="fill:white;fill-rule:nonzero;"/>
                            </g>
                            <g transform="matrix(20,0,0,20,85.5,97)">
                                <path d="M0.521,-0.065C0.489,-0.039 0.456,-0.02 0.423,-0.008C0.389,0.004 0.351,0.01 0.31,0.01C0.271,0.01 0.234,0.003 0.2,-0.011C0.165,-0.025 0.136,-0.044 0.111,-0.068C0.086,-0.092 0.066,-0.121 0.051,-0.154C0.037,-0.187 0.03,-0.222 0.03,-0.26C0.03,-0.297 0.037,-0.333 0.051,-0.366C0.064,-0.399 0.083,-0.427 0.107,-0.452C0.131,-0.476 0.16,-0.495 0.193,-0.509C0.226,-0.523 0.261,-0.53 0.298,-0.53C0.335,-0.53 0.369,-0.523 0.401,-0.508C0.432,-0.494 0.46,-0.475 0.483,-0.45C0.505,-0.425 0.524,-0.396 0.537,-0.362C0.55,-0.327 0.556,-0.29 0.556,-0.25L0.556,-0.214L0.168,-0.214C0.177,-0.181 0.195,-0.155 0.222,-0.135C0.249,-0.115 0.28,-0.105 0.316,-0.105C0.339,-0.105 0.36,-0.109 0.38,-0.116C0.4,-0.123 0.417,-0.134 0.431,-0.147L0.521,-0.065ZM0.295,-0.417C0.264,-0.417 0.237,-0.407 0.214,-0.389C0.191,-0.37 0.176,-0.344 0.167,-0.312L0.422,-0.312C0.413,-0.343 0.398,-0.368 0.375,-0.388C0.352,-0.407 0.325,-0.417 0.295,-0.417Z" style="fill:white;fill-rule:nonzero;"/>
                            </g>
                            <g transform="matrix(20,0,0,20,97.3,97)">
                                <path d="M0.443,-0L0.443,-0.043C0.422,-0.026 0.399,-0.014 0.374,-0.006C0.349,0.003 0.322,0.007 0.295,0.007C0.258,0.007 0.224,-0 0.192,-0.014C0.159,-0.028 0.131,-0.047 0.107,-0.071C0.083,-0.095 0.064,-0.123 0.051,-0.156C0.037,-0.189 0.03,-0.224 0.03,-0.261C0.03,-0.298 0.037,-0.333 0.051,-0.366C0.065,-0.399 0.084,-0.427 0.108,-0.451C0.132,-0.475 0.161,-0.494 0.194,-0.507C0.227,-0.521 0.262,-0.528 0.299,-0.528C0.324,-0.528 0.349,-0.525 0.374,-0.518C0.398,-0.51 0.42,-0.5 0.441,-0.487L0.441,-0.7L0.578,-0.73L0.578,-0L0.443,-0ZM0.165,-0.261C0.165,-0.219 0.18,-0.183 0.209,-0.154C0.238,-0.125 0.274,-0.11 0.317,-0.11C0.342,-0.11 0.366,-0.114 0.387,-0.123C0.407,-0.132 0.426,-0.144 0.441,-0.16L0.441,-0.363C0.426,-0.378 0.408,-0.39 0.387,-0.399C0.365,-0.408 0.342,-0.412 0.317,-0.412C0.274,-0.412 0.237,-0.398 0.209,-0.369C0.18,-0.34 0.165,-0.304 0.165,-0.261Z" style="fill:white;fill-rule:nonzero;"/>
                            </g>
                        </g>
                        <g transform="matrix(0.947335,0,0,0.957868,2075.73,1758.01)">
                            <g transform="matrix(20,0,0,20,14,97)">
                                <path d="M0.018,-0.572L0.018,-0.7L0.634,-0.7L0.634,-0.572L0.399,-0.572L0.399,-0L0.254,-0L0.254,-0.572L0.018,-0.572Z" style="fill:white;fill-rule:nonzero;"/>
                            </g>
                            <g transform="matrix(20,0,0,20,26.18,97)">
                                <path d="M0.054,-0L0.054,-0.521L0.191,-0.521L0.191,-0.464C0.208,-0.487 0.228,-0.504 0.252,-0.516C0.275,-0.527 0.301,-0.533 0.33,-0.533C0.343,-0.532 0.355,-0.531 0.364,-0.53C0.373,-0.528 0.38,-0.525 0.387,-0.521L0.387,-0.401C0.377,-0.406 0.366,-0.409 0.354,-0.411C0.342,-0.414 0.33,-0.415 0.317,-0.415C0.29,-0.415 0.266,-0.408 0.244,-0.395C0.221,-0.382 0.204,-0.362 0.191,-0.337L0.191,-0L0.054,-0Z" style="fill:white;fill-rule:nonzero;"/>
                            </g>
                            <g transform="matrix(20,0,0,20,34.02,97)">
                                <path d="M0.219,0.009C0.163,0.009 0.117,-0.006 0.082,-0.035C0.047,-0.065 0.029,-0.104 0.029,-0.151C0.029,-0.2 0.048,-0.239 0.086,-0.267C0.124,-0.295 0.176,-0.309 0.243,-0.309C0.264,-0.309 0.286,-0.307 0.307,-0.304C0.328,-0.301 0.349,-0.296 0.37,-0.289L0.37,-0.326C0.37,-0.356 0.361,-0.379 0.342,-0.394C0.323,-0.409 0.296,-0.417 0.26,-0.417C0.238,-0.417 0.214,-0.413 0.189,-0.406C0.163,-0.4 0.134,-0.389 0.101,-0.374L0.051,-0.475C0.092,-0.494 0.131,-0.508 0.17,-0.517C0.208,-0.526 0.246,-0.531 0.283,-0.531C0.353,-0.531 0.407,-0.514 0.447,-0.481C0.486,-0.447 0.505,-0.399 0.505,-0.338L0.505,-0L0.37,-0L0.37,-0.036C0.348,-0.021 0.325,-0.009 0.301,-0.002C0.276,0.005 0.249,0.009 0.219,0.009ZM0.16,-0.154C0.16,-0.134 0.169,-0.118 0.186,-0.107C0.203,-0.095 0.226,-0.089 0.255,-0.089C0.278,-0.089 0.299,-0.092 0.318,-0.098C0.337,-0.103 0.354,-0.111 0.37,-0.122L0.37,-0.2C0.353,-0.207 0.336,-0.212 0.318,-0.215C0.299,-0.218 0.28,-0.219 0.26,-0.219C0.229,-0.219 0.204,-0.213 0.187,-0.202C0.169,-0.19 0.16,-0.174 0.16,-0.154Z" style="fill:white;fill-rule:nonzero;"/>
                            </g>
                            <g transform="matrix(20,0,0,20,45.12,97)">
                                <path d="M0.122,-0.583C0.101,-0.583 0.082,-0.591 0.067,-0.606C0.052,-0.621 0.044,-0.64 0.044,-0.661C0.044,-0.682 0.052,-0.701 0.067,-0.716C0.082,-0.731 0.101,-0.739 0.122,-0.739C0.143,-0.739 0.162,-0.731 0.177,-0.716C0.192,-0.701 0.2,-0.682 0.2,-0.661C0.2,-0.64 0.192,-0.621 0.177,-0.606C0.162,-0.591 0.143,-0.583 0.122,-0.583ZM0.191,-0.521L0.191,-0L0.054,-0L0.054,-0.521L0.191,-0.521Z" style="fill:white;fill-rule:nonzero;"/>
                            </g>
                            <g transform="matrix(20,0,0,20,50,97)">
                                <path d="M0.054,-0L0.054,-0.521L0.191,-0.521L0.191,-0.48C0.211,-0.497 0.233,-0.509 0.258,-0.518C0.282,-0.527 0.308,-0.531 0.337,-0.531C0.397,-0.531 0.446,-0.512 0.485,-0.473C0.524,-0.434 0.543,-0.385 0.543,-0.324L0.543,-0L0.406,-0L0.406,-0.304C0.406,-0.337 0.396,-0.363 0.377,-0.383C0.357,-0.403 0.331,-0.413 0.298,-0.413C0.275,-0.413 0.255,-0.408 0.236,-0.4C0.218,-0.391 0.203,-0.378 0.191,-0.361L0.191,-0L0.054,-0Z" style="fill:white;fill-rule:nonzero;"/>
                            </g>
                            <g transform="matrix(20,0,0,20,61.86,97)">
                                <path d="M0.122,-0.583C0.101,-0.583 0.082,-0.591 0.067,-0.606C0.052,-0.621 0.044,-0.64 0.044,-0.661C0.044,-0.682 0.052,-0.701 0.067,-0.716C0.082,-0.731 0.101,-0.739 0.122,-0.739C0.143,-0.739 0.162,-0.731 0.177,-0.716C0.192,-0.701 0.2,-0.682 0.2,-0.661C0.2,-0.64 0.192,-0.621 0.177,-0.606C0.162,-0.591 0.143,-0.583 0.122,-0.583ZM0.191,-0.521L0.191,-0L0.054,-0L0.054,-0.521L0.191,-0.521Z" style="fill:white;fill-rule:nonzero;"/>
                            </g>
                            <g transform="matrix(20,0,0,20,66.74,97)">
                                <path d="M0.054,-0L0.054,-0.521L0.191,-0.521L0.191,-0.48C0.211,-0.497 0.233,-0.509 0.258,-0.518C0.282,-0.527 0.308,-0.531 0.337,-0.531C0.397,-0.531 0.446,-0.512 0.485,-0.473C0.524,-0.434 0.543,-0.385 0.543,-0.324L0.543,-0L0.406,-0L0.406,-0.304C0.406,-0.337 0.396,-0.363 0.377,-0.383C0.357,-0.403 0.331,-0.413 0.298,-0.413C0.275,-0.413 0.255,-0.408 0.236,-0.4C0.218,-0.391 0.203,-0.378 0.191,-0.361L0.191,-0L0.054,-0Z" style="fill:white;fill-rule:nonzero;"/>
                            </g>
                            <g transform="matrix(20,0,0,20,78.6,97)">
                                <path d="M0.294,0.003C0.257,0.003 0.223,-0.004 0.191,-0.018C0.158,-0.032 0.13,-0.051 0.107,-0.075C0.083,-0.099 0.064,-0.127 0.051,-0.16C0.037,-0.192 0.03,-0.227 0.03,-0.264C0.03,-0.301 0.037,-0.335 0.051,-0.368C0.065,-0.4 0.084,-0.428 0.108,-0.452C0.132,-0.476 0.16,-0.495 0.193,-0.508C0.226,-0.522 0.261,-0.529 0.298,-0.529C0.324,-0.529 0.349,-0.525 0.373,-0.518C0.396,-0.511 0.418,-0.5 0.439,-0.487L0.439,-0.521L0.574,-0.521L0.574,-0C0.574,0.069 0.552,0.122 0.507,0.159C0.463,0.196 0.399,0.215 0.316,0.215C0.276,0.215 0.237,0.211 0.201,0.203C0.164,0.195 0.13,0.183 0.099,0.168L0.147,0.061C0.176,0.075 0.204,0.085 0.231,0.092C0.258,0.099 0.286,0.103 0.313,0.103C0.354,0.103 0.385,0.094 0.406,0.076C0.427,0.059 0.437,0.033 0.437,-0.001L0.437,-0.044C0.416,-0.029 0.394,-0.017 0.37,-0.009C0.345,-0.001 0.32,0.003 0.294,0.003ZM0.165,-0.264C0.165,-0.222 0.18,-0.186 0.209,-0.157C0.237,-0.128 0.273,-0.113 0.315,-0.113C0.34,-0.113 0.362,-0.117 0.383,-0.126C0.404,-0.134 0.422,-0.145 0.437,-0.16L0.437,-0.365C0.422,-0.38 0.404,-0.391 0.383,-0.4C0.362,-0.408 0.339,-0.412 0.316,-0.412C0.274,-0.412 0.238,-0.398 0.209,-0.369C0.18,-0.34 0.165,-0.305 0.165,-0.264Z" style="fill:white;fill-rule:nonzero;"/>
                            </g>
                            <g transform="matrix(20,0,0,20,95.18,97)">
                                <path d="M0.063,-0L0.063,-0.7L0.414,-0.7C0.448,-0.7 0.48,-0.695 0.508,-0.684C0.538,-0.673 0.562,-0.657 0.583,-0.638C0.604,-0.619 0.62,-0.596 0.631,-0.569C0.643,-0.542 0.649,-0.512 0.649,-0.48C0.649,-0.449 0.643,-0.42 0.631,-0.394C0.62,-0.367 0.604,-0.344 0.583,-0.325C0.562,-0.306 0.537,-0.291 0.508,-0.28C0.479,-0.269 0.448,-0.264 0.414,-0.264L0.208,-0.264L0.208,-0L0.063,-0ZM0.398,-0.575L0.208,-0.575L0.208,-0.384L0.398,-0.384C0.429,-0.384 0.455,-0.393 0.473,-0.41C0.493,-0.427 0.502,-0.45 0.502,-0.479C0.502,-0.508 0.493,-0.531 0.473,-0.549C0.455,-0.566 0.429,-0.575 0.398,-0.575Z" style="fill:white;fill-rule:nonzero;"/>
                            </g>
                            <g transform="matrix(20,0,0,20,108.36,97)">
                                <path d="M0.219,0.009C0.163,0.009 0.117,-0.006 0.082,-0.035C0.047,-0.065 0.029,-0.104 0.029,-0.151C0.029,-0.2 0.048,-0.239 0.086,-0.267C0.124,-0.295 0.176,-0.309 0.243,-0.309C0.264,-0.309 0.286,-0.307 0.307,-0.304C0.328,-0.301 0.349,-0.296 0.37,-0.289L0.37,-0.326C0.37,-0.356 0.361,-0.379 0.342,-0.394C0.323,-0.409 0.296,-0.417 0.26,-0.417C0.238,-0.417 0.214,-0.413 0.189,-0.406C0.163,-0.4 0.134,-0.389 0.101,-0.374L0.051,-0.475C0.092,-0.494 0.131,-0.508 0.17,-0.517C0.208,-0.526 0.246,-0.531 0.283,-0.531C0.353,-0.531 0.407,-0.514 0.447,-0.481C0.486,-0.447 0.505,-0.399 0.505,-0.338L0.505,-0L0.37,-0L0.37,-0.036C0.348,-0.021 0.325,-0.009 0.301,-0.002C0.276,0.005 0.249,0.009 0.219,0.009ZM0.16,-0.154C0.16,-0.134 0.169,-0.118 0.186,-0.107C0.203,-0.095 0.226,-0.089 0.255,-0.089C0.278,-0.089 0.299,-0.092 0.318,-0.098C0.337,-0.103 0.354,-0.111 0.37,-0.122L0.37,-0.2C0.353,-0.207 0.336,-0.212 0.318,-0.215C0.299,-0.218 0.28,-0.219 0.26,-0.219C0.229,-0.219 0.204,-0.213 0.187,-0.202C0.169,-0.19 0.16,-0.174 0.16,-0.154Z" style="fill:white;fill-rule:nonzero;"/>
                            </g>
                            <g transform="matrix(20,0,0,20,119.46,97)">
                                <path d="M0.054,-0L0.054,-0.521L0.191,-0.521L0.191,-0.464C0.208,-0.487 0.228,-0.504 0.252,-0.516C0.275,-0.527 0.301,-0.533 0.33,-0.533C0.343,-0.532 0.355,-0.531 0.364,-0.53C0.373,-0.528 0.38,-0.525 0.387,-0.521L0.387,-0.401C0.377,-0.406 0.366,-0.409 0.354,-0.411C0.342,-0.414 0.33,-0.415 0.317,-0.415C0.29,-0.415 0.266,-0.408 0.244,-0.395C0.221,-0.382 0.204,-0.362 0.191,-0.337L0.191,-0L0.054,-0Z" style="fill:white;fill-rule:nonzero;"/>
                            </g>
                            <g transform="matrix(20,0,0,20,127.76,97)">
                                <path d="M0.125,-0.147L0.125,-0.406L0.018,-0.406L0.018,-0.521L0.125,-0.521L0.125,-0.654L0.262,-0.685L0.262,-0.521L0.41,-0.521L0.41,-0.406L0.262,-0.406L0.262,-0.175C0.262,-0.15 0.267,-0.133 0.278,-0.123C0.289,-0.113 0.307,-0.108 0.334,-0.108C0.347,-0.108 0.359,-0.109 0.37,-0.111C0.381,-0.112 0.394,-0.115 0.407,-0.12L0.407,-0.008C0.392,-0.003 0.375,0 0.354,0.003C0.333,0.006 0.316,0.008 0.301,0.008C0.243,0.008 0.199,-0.005 0.17,-0.032C0.14,-0.058 0.125,-0.096 0.125,-0.147Z" style="fill:white;fill-rule:nonzero;"/>
                            </g>
                            <g transform="matrix(20,0,0,20,136.24,97)">
                                <path d="M0.054,-0L0.054,-0.521L0.191,-0.521L0.191,-0.48C0.211,-0.497 0.233,-0.509 0.258,-0.518C0.282,-0.527 0.308,-0.531 0.337,-0.531C0.397,-0.531 0.446,-0.512 0.485,-0.473C0.524,-0.434 0.543,-0.385 0.543,-0.324L0.543,-0L0.406,-0L0.406,-0.304C0.406,-0.337 0.396,-0.363 0.377,-0.383C0.357,-0.403 0.331,-0.413 0.298,-0.413C0.275,-0.413 0.255,-0.408 0.236,-0.4C0.218,-0.391 0.203,-0.378 0.191,-0.361L0.191,-0L0.054,-0Z" style="fill:white;fill-rule:nonzero;"/>
                            </g>
                            <g transform="matrix(20,0,0,20,148.1,97)">
                                <path d="M0.521,-0.065C0.489,-0.039 0.456,-0.02 0.423,-0.008C0.389,0.004 0.351,0.01 0.31,0.01C0.271,0.01 0.234,0.003 0.2,-0.011C0.165,-0.025 0.136,-0.044 0.111,-0.068C0.086,-0.092 0.066,-0.121 0.051,-0.154C0.037,-0.187 0.03,-0.222 0.03,-0.26C0.03,-0.297 0.037,-0.333 0.051,-0.366C0.064,-0.399 0.083,-0.427 0.107,-0.452C0.131,-0.476 0.16,-0.495 0.193,-0.509C0.226,-0.523 0.261,-0.53 0.298,-0.53C0.335,-0.53 0.369,-0.523 0.401,-0.508C0.432,-0.494 0.46,-0.475 0.483,-0.45C0.505,-0.425 0.524,-0.396 0.537,-0.362C0.55,-0.327 0.556,-0.29 0.556,-0.25L0.556,-0.214L0.168,-0.214C0.177,-0.181 0.195,-0.155 0.222,-0.135C0.249,-0.115 0.28,-0.105 0.316,-0.105C0.339,-0.105 0.36,-0.109 0.38,-0.116C0.4,-0.123 0.417,-0.134 0.431,-0.147L0.521,-0.065ZM0.295,-0.417C0.264,-0.417 0.237,-0.407 0.214,-0.389C0.191,-0.37 0.176,-0.344 0.167,-0.312L0.422,-0.312C0.413,-0.343 0.398,-0.368 0.375,-0.388C0.352,-0.407 0.325,-0.417 0.295,-0.417Z" style="fill:white;fill-rule:nonzero;"/>
                            </g>
                            <g transform="matrix(20,0,0,20,159.82,97)">
                                <path d="M0.054,-0L0.054,-0.521L0.191,-0.521L0.191,-0.464C0.208,-0.487 0.228,-0.504 0.252,-0.516C0.275,-0.527 0.301,-0.533 0.33,-0.533C0.343,-0.532 0.355,-0.531 0.364,-0.53C0.373,-0.528 0.38,-0.525 0.387,-0.521L0.387,-0.401C0.377,-0.406 0.366,-0.409 0.354,-0.411C0.342,-0.414 0.33,-0.415 0.317,-0.415C0.29,-0.415 0.266,-0.408 0.244,-0.395C0.221,-0.382 0.204,-0.362 0.191,-0.337L0.191,-0L0.054,-0Z" style="fill:white;fill-rule:nonzero;"/>
                            </g>
                        </g>
                    </g>
                </g>
            </g>
        </g>
    </g>
</svg>
